%TF.GenerationSoftware,KiCad,Pcbnew,9.0.6-9.0.6~ubuntu24.04.1*%
%TF.CreationDate,2025-11-29T05:12:29+01:00*%
%TF.ProjectId,Planktoscope-Hat,506c616e-6b74-46f7-9363-6f70652d4861,rev?*%
%TF.SameCoordinates,Original*%
%TF.FileFunction,Copper,L1,Top*%
%TF.FilePolarity,Positive*%
%FSLAX46Y46*%
G04 Gerber Fmt 4.6, Leading zero omitted, Abs format (unit mm)*
G04 Created by KiCad (PCBNEW 9.0.6-9.0.6~ubuntu24.04.1) date 2025-11-29 05:12:29*
%MOMM*%
%LPD*%
G01*
G04 APERTURE LIST*
G04 Aperture macros list*
%AMRoundRect*
0 Rectangle with rounded corners*
0 $1 Rounding radius*
0 $2 $3 $4 $5 $6 $7 $8 $9 X,Y pos of 4 corners*
0 Add a 4 corners polygon primitive as box body*
4,1,4,$2,$3,$4,$5,$6,$7,$8,$9,$2,$3,0*
0 Add four circle primitives for the rounded corners*
1,1,$1+$1,$2,$3*
1,1,$1+$1,$4,$5*
1,1,$1+$1,$6,$7*
1,1,$1+$1,$8,$9*
0 Add four rect primitives between the rounded corners*
20,1,$1+$1,$2,$3,$4,$5,0*
20,1,$1+$1,$4,$5,$6,$7,0*
20,1,$1+$1,$6,$7,$8,$9,0*
20,1,$1+$1,$8,$9,$2,$3,0*%
G04 Aperture macros list end*
%TA.AperFunction,SMDPad,CuDef*%
%ADD10R,1.000000X2.510000*%
%TD*%
%TA.AperFunction,SMDPad,CuDef*%
%ADD11R,2.510000X1.000000*%
%TD*%
%TA.AperFunction,SMDPad,CuDef*%
%ADD12R,1.000000X1.900000*%
%TD*%
%TA.AperFunction,ComponentPad*%
%ADD13C,1.700000*%
%TD*%
%TA.AperFunction,ComponentPad*%
%ADD14R,1.700000X1.700000*%
%TD*%
%TA.AperFunction,SMDPad,CuDef*%
%ADD15RoundRect,0.250000X-0.375000X-0.625000X0.375000X-0.625000X0.375000X0.625000X-0.375000X0.625000X0*%
%TD*%
%TA.AperFunction,SMDPad,CuDef*%
%ADD16RoundRect,0.250000X-0.625000X0.375000X-0.625000X-0.375000X0.625000X-0.375000X0.625000X0.375000X0*%
%TD*%
%TA.AperFunction,SMDPad,CuDef*%
%ADD17RoundRect,0.250000X-0.300000X2.050000X-0.300000X-2.050000X0.300000X-2.050000X0.300000X2.050000X0*%
%TD*%
%TA.AperFunction,SMDPad,CuDef*%
%ADD18RoundRect,0.250002X-5.149998X4.449998X-5.149998X-4.449998X5.149998X-4.449998X5.149998X4.449998X0*%
%TD*%
%TA.AperFunction,SMDPad,CuDef*%
%ADD19RoundRect,0.175000X-0.175000X-0.425000X0.175000X-0.425000X0.175000X0.425000X-0.175000X0.425000X0*%
%TD*%
%TA.AperFunction,SMDPad,CuDef*%
%ADD20RoundRect,0.190000X0.190000X0.410000X-0.190000X0.410000X-0.190000X-0.410000X0.190000X-0.410000X0*%
%TD*%
%TA.AperFunction,SMDPad,CuDef*%
%ADD21RoundRect,0.200000X0.200000X0.400000X-0.200000X0.400000X-0.200000X-0.400000X0.200000X-0.400000X0*%
%TD*%
%TA.AperFunction,SMDPad,CuDef*%
%ADD22RoundRect,0.175000X0.175000X0.425000X-0.175000X0.425000X-0.175000X-0.425000X0.175000X-0.425000X0*%
%TD*%
%TA.AperFunction,SMDPad,CuDef*%
%ADD23RoundRect,0.190000X-0.190000X-0.410000X0.190000X-0.410000X0.190000X0.410000X-0.190000X0.410000X0*%
%TD*%
%TA.AperFunction,SMDPad,CuDef*%
%ADD24RoundRect,0.200000X-0.200000X-0.400000X0.200000X-0.400000X0.200000X0.400000X-0.200000X0.400000X0*%
%TD*%
%TA.AperFunction,SMDPad,CuDef*%
%ADD25RoundRect,0.250000X-0.650000X-0.425000X0.650000X-0.425000X0.650000X0.425000X-0.650000X0.425000X0*%
%TD*%
%TA.AperFunction,SMDPad,CuDef*%
%ADD26RoundRect,0.250000X-0.650000X-0.500000X0.650000X-0.500000X0.650000X0.500000X-0.650000X0.500000X0*%
%TD*%
%TA.AperFunction,SMDPad,CuDef*%
%ADD27RoundRect,0.250000X0.375000X0.625000X-0.375000X0.625000X-0.375000X-0.625000X0.375000X-0.625000X0*%
%TD*%
%TA.AperFunction,ComponentPad*%
%ADD28O,1.700000X1.700000*%
%TD*%
%TA.AperFunction,ComponentPad*%
%ADD29R,1.500000X1.500000*%
%TD*%
%TA.AperFunction,ComponentPad*%
%ADD30C,1.500000*%
%TD*%
%TA.AperFunction,ViaPad*%
%ADD31C,1.300000*%
%TD*%
%TA.AperFunction,ViaPad*%
%ADD32C,4.000000*%
%TD*%
%TA.AperFunction,Conductor*%
%ADD33C,1.000000*%
%TD*%
%TA.AperFunction,Conductor*%
%ADD34C,0.500000*%
%TD*%
G04 APERTURE END LIST*
D10*
%TO.P,J2,4,Pin_4*%
%TO.N,+5V{slash}1*%
X71810000Y-64805000D03*
%TO.P,J2,3,Pin_3*%
%TO.N,GND*%
X69270000Y-68115000D03*
D11*
%TO.P,J2,1,Pin_1*%
%TO.N,+12V*%
X117225000Y-69765000D03*
%TO.P,J2,2,Pin_2*%
%TO.N,GND*%
X113915000Y-67225000D03*
%TD*%
D12*
%TO.P,A4988,16,Pin_16*%
%TO.N,GND*%
X133620000Y-83900000D03*
%TO.P,A4988,15,Pin_15*%
%TO.N,+3V3*%
X136160000Y-80600000D03*
%TO.P,A4988,14,Pin_14*%
%TO.N,Net-(A4988-Pin_14)*%
X138700000Y-83900000D03*
%TO.P,A4988,13,Pin_13*%
%TO.N,Net-(A4988-Pin_13)*%
X141240000Y-80600000D03*
%TO.P,A4988,12,Pin_12*%
%TO.N,Net-(A4988-Pin_12)*%
X143780000Y-83900000D03*
%TO.P,A4988,11,Pin_11*%
%TO.N,Net-(A4988-Pin_11)*%
X146320000Y-80600000D03*
%TO.P,A4988,10,Pin_10*%
%TO.N,GND*%
X148860000Y-83900000D03*
%TO.P,A4988,9,Pin_9*%
%TO.N,+12V*%
X151400000Y-80600000D03*
%TO.P,A4988,8,Pin_8*%
%TO.N,DIR*%
X133620000Y-71220000D03*
%TO.P,A4988,7,Pin_7*%
%TO.N,STEP*%
X136160000Y-67920000D03*
%TO.P,A4988,6,Pin_6*%
%TO.N,Net-(A4988-Pin_5)*%
X138700000Y-71220000D03*
%TO.P,A4988,5,Pin_5*%
X141240000Y-67920000D03*
%TO.P,A4988,4,Pin_4*%
%TO.N,unconnected-(A4988-Pin_4-Pad4)*%
X143780000Y-71220000D03*
%TO.P,A4988,3,Pin_3*%
%TO.N,unconnected-(A4988-Pin_3-Pad3)*%
X146320000Y-67920000D03*
%TO.P,A4988,2,Pin_2*%
%TO.N,unconnected-(A4988-Pin_2-Pad2)*%
X148860000Y-71220000D03*
%TO.P,A4988,1,Pin_1*%
%TO.N,unconnected-(A4988-Pin_1-Pad1)*%
X151400000Y-67920000D03*
%TD*%
%TO.P,A4988_1,16,Pin_16*%
%TO.N,GND*%
X151180000Y-43920000D03*
%TO.P,A4988_1,15,Pin_15*%
%TO.N,+3V3*%
X148640000Y-47220000D03*
%TO.P,A4988_1,14,Pin_14*%
%TO.N,Net-(A4988_1-Pin_14)*%
X146100000Y-43920000D03*
%TO.P,A4988_1,13,Pin_13*%
%TO.N,Net-(A4988_1-Pin_13)*%
X143560000Y-47220000D03*
%TO.P,A4988_1,12,Pin_12*%
%TO.N,Net-(A4988_1-Pin_12)*%
X141020000Y-43920000D03*
%TO.P,A4988_1,11,Pin_11*%
%TO.N,Net-(A4988_1-Pin_11)*%
X138480000Y-47220000D03*
%TO.P,A4988_1,10,Pin_10*%
%TO.N,GND*%
X135940000Y-43920000D03*
%TO.P,A4988_1,9,Pin_9*%
%TO.N,+12V*%
X133400000Y-47220000D03*
%TO.P,A4988_1,8,Pin_8*%
%TO.N,DIR_1*%
X151180000Y-56600000D03*
%TO.P,A4988_1,7,Pin_7*%
%TO.N,STEP_1*%
X148640000Y-59900000D03*
%TO.P,A4988_1,6,Pin_6*%
%TO.N,Net-(A4988_1-Pin_5)*%
X146100000Y-56600000D03*
%TO.P,A4988_1,5,Pin_5*%
X143560000Y-59900000D03*
%TO.P,A4988_1,4,Pin_4*%
%TO.N,unconnected-(A4988_1-Pin_4-Pad4)*%
X141020000Y-56600000D03*
%TO.P,A4988_1,3,Pin_3*%
%TO.N,unconnected-(A4988_1-Pin_3-Pad3)*%
X138480000Y-59900000D03*
%TO.P,A4988_1,2,Pin_2*%
%TO.N,unconnected-(A4988_1-Pin_2-Pad2)*%
X135940000Y-56600000D03*
%TO.P,A4988_1,1,Pin_1*%
%TO.N,unconnected-(A4988_1-Pin_1-Pad1)*%
X133400000Y-59900000D03*
%TD*%
D13*
%TO.P,MOT1-2,4,4*%
%TO.N,Net-(A4988_1-Pin_11)*%
X138450000Y-38705000D03*
%TO.P,MOT1-2,3,3*%
%TO.N,Net-(A4988_1-Pin_12)*%
X140990000Y-38705000D03*
%TO.P,MOT1-2,2,2*%
%TO.N,Net-(A4988_1-Pin_13)*%
X143530000Y-38705000D03*
D14*
%TO.P,MOT1-2,1,1*%
%TO.N,Net-(A4988_1-Pin_14)*%
X146070000Y-38705000D03*
%TD*%
D13*
%TO.P,MOT2,4,4*%
%TO.N,Net-(A4988-Pin_11)*%
X146360000Y-91320000D03*
%TO.P,MOT2,3,3*%
%TO.N,Net-(A4988-Pin_12)*%
X143820000Y-91320000D03*
%TO.P,MOT2,2,2*%
%TO.N,Net-(A4988-Pin_13)*%
X141280000Y-91320000D03*
D14*
%TO.P,MOT2,1,1*%
%TO.N,Net-(A4988-Pin_14)*%
X138740000Y-91320000D03*
%TD*%
D15*
%TO.P,R12,1*%
%TO.N,Net-(Q1-C)*%
X121000000Y-69600000D03*
%TO.P,R12,2*%
%TO.N,Net-(LAMP1-G)*%
X123800000Y-69600000D03*
%TD*%
D16*
%TO.P,R1,1*%
%TO.N,Led*%
X106200000Y-51500000D03*
%TO.P,R1,2*%
%TO.N,Net-(Q1-B)*%
X106200000Y-54300000D03*
%TD*%
D17*
%TO.P,LAMP1,1,G*%
%TO.N,Net-(LAMP1-G)*%
X127740000Y-74550000D03*
D18*
%TO.P,LAMP1,2,D*%
%TO.N,LAMP*%
X125200000Y-83700000D03*
D17*
%TO.P,LAMP1,3,S*%
%TO.N,GND*%
X122660000Y-74550000D03*
%TD*%
D19*
%TO.P,J3,A5,CC1*%
%TO.N,unconnected-(J3-CC1-PadA5)*%
X78400000Y-89367500D03*
D20*
%TO.P,J3,A9,VBUS*%
%TO.N,+5V{slash}1*%
X80420000Y-89367500D03*
D21*
%TO.P,J3,A12,GND*%
%TO.N,GND*%
X81650000Y-89367500D03*
D22*
%TO.P,J3,B5,CC2*%
%TO.N,unconnected-(J3-CC2-PadB5)*%
X79400000Y-89367500D03*
D23*
%TO.P,J3,B9,VBUS*%
%TO.N,+5V{slash}1*%
X77380000Y-89367500D03*
D24*
%TO.P,J3,B12,GND*%
%TO.N,GND*%
X76150000Y-89367500D03*
D25*
%TO.P,J3,S1,SHIELD*%
X73775000Y-89422500D03*
D26*
X73775000Y-93002500D03*
D25*
X84025000Y-89422500D03*
D26*
X84025000Y-93002500D03*
%TD*%
D27*
%TO.P,R7,1*%
%TO.N,Net-(Q1-C)*%
X121000000Y-67200000D03*
%TO.P,R7,2*%
%TO.N,+12V*%
X118200000Y-67200000D03*
%TD*%
D14*
%TO.P,J4,1,Pin_1*%
%TO.N,/UART_TX*%
X81300000Y-39200000D03*
D13*
%TO.P,J4,2,Pin_2*%
%TO.N,GND*%
X78760000Y-39200000D03*
%TO.P,J4,3,Pin_3*%
%TO.N,+5V{slash}1*%
X76220000Y-39200000D03*
%TD*%
D14*
%TO.P,K1,1,1*%
%TO.N,unconnected-(K1-Pad1)*%
X73860000Y-46700000D03*
D28*
%TO.P,K1,2,2*%
%TO.N,+5V{slash}1*%
X73860000Y-44160000D03*
%TO.P,K1,3,3*%
%TO.N,/I2C1_SDA*%
X76400000Y-46700000D03*
%TO.P,K1,4,4*%
%TO.N,+5V{slash}1*%
X76400000Y-44160000D03*
%TO.P,K1,5,5*%
%TO.N,/I2C1_SCL*%
X78940000Y-46700000D03*
%TO.P,K1,6,6*%
%TO.N,GND*%
X78940000Y-44160000D03*
%TO.P,K1,7,7*%
%TO.N,/GPIO4*%
X81480000Y-46700000D03*
%TO.P,K1,8,8*%
%TO.N,/UART_TX*%
X81480000Y-44160000D03*
%TO.P,K1,9,9*%
%TO.N,GND*%
X84020000Y-46700000D03*
%TO.P,K1,10,10*%
%TO.N,/UART_RX*%
X84020000Y-44160000D03*
%TO.P,K1,11,11*%
%TO.N,/GPIO17*%
X86560000Y-46700000D03*
%TO.P,K1,12,12*%
%TO.N,/GPIO18{slash}PWM0*%
X86560000Y-44160000D03*
%TO.P,K1,13,13*%
%TO.N,/GPIO27*%
X89100000Y-46700000D03*
%TO.P,K1,14,14*%
%TO.N,GND*%
X89100000Y-44160000D03*
%TO.P,K1,15,15*%
%TO.N,/GPIO22*%
X91640000Y-46700000D03*
%TO.P,K1,16,16*%
%TO.N,/GPIO23*%
X91640000Y-44160000D03*
%TO.P,K1,17,17*%
%TO.N,+3V3*%
X94180000Y-46700000D03*
%TO.P,K1,18,18*%
%TO.N,/GPIO24*%
X94180000Y-44160000D03*
%TO.P,K1,19,19*%
%TO.N,/SPI0_MOSI*%
X96720000Y-46700000D03*
%TO.P,K1,20,20*%
%TO.N,GND*%
X96720000Y-44160000D03*
%TO.P,K1,21,21*%
%TO.N,/SPI0_MISO*%
X99260000Y-46700000D03*
%TO.P,K1,22,22*%
%TO.N,/GPIO25*%
X99260000Y-44160000D03*
%TO.P,K1,23,23*%
%TO.N,Led*%
X101800000Y-46700000D03*
%TO.P,K1,24,24*%
%TO.N,/SPI0_CE0*%
X101800000Y-44160000D03*
%TO.P,K1,25,25*%
%TO.N,GND*%
X104340000Y-46700000D03*
%TO.P,K1,26,26*%
%TO.N,/SPI0_CE1*%
X104340000Y-44160000D03*
%TO.P,K1,27,27*%
%TO.N,/EEPROM_SDA*%
X106880000Y-46700000D03*
%TO.P,K1,28,28*%
%TO.N,/EEPROM_SCL*%
X106880000Y-44160000D03*
%TO.P,K1,29,29*%
%TO.N,DIR*%
X109420000Y-46700000D03*
%TO.P,K1,30,30*%
%TO.N,GND*%
X109420000Y-44160000D03*
%TO.P,K1,31,31*%
%TO.N,STEP*%
X111960000Y-46700000D03*
%TO.P,K1,32,32*%
%TO.N,/GPIO12{slash}PWM0*%
X111960000Y-44160000D03*
%TO.P,K1,33,33*%
%TO.N,/GPIO13{slash}PWM1*%
X114500000Y-46700000D03*
%TO.P,K1,34,34*%
%TO.N,GND*%
X114500000Y-44160000D03*
%TO.P,K1,35,35*%
%TO.N,STEP_1*%
X117040000Y-46700000D03*
%TO.P,K1,36,36*%
%TO.N,/GPIO16*%
X117040000Y-44160000D03*
%TO.P,K1,37,37*%
%TO.N,DIR_1*%
X119580000Y-46700000D03*
%TO.P,K1,38,38*%
%TO.N,/GPIO20*%
X119580000Y-44160000D03*
%TO.P,K1,39,39*%
%TO.N,GND*%
X122120000Y-46700000D03*
%TO.P,K1,40,40*%
%TO.N,/GPIO21*%
X122120000Y-44160000D03*
%TD*%
D14*
%TO.P,J1,1,Pin_1*%
%TO.N,+12V*%
X117225000Y-91515000D03*
D13*
%TO.P,J1,2,Pin_2*%
%TO.N,LAMP*%
X119765000Y-91515000D03*
%TD*%
D29*
%TO.P,Q1,1,E*%
%TO.N,GND*%
X108650000Y-60050000D03*
D30*
%TO.P,Q1,2,B*%
%TO.N,Net-(Q1-B)*%
X111190000Y-60050000D03*
%TO.P,Q1,3,C*%
%TO.N,Net-(Q1-C)*%
X113730000Y-60050000D03*
%TD*%
D31*
%TO.N,+12V*%
X126500000Y-48900000D03*
X113600000Y-64200000D03*
D32*
%TO.N,*%
X69100000Y-44700000D03*
X127100000Y-93700000D03*
X127100000Y-44700000D03*
X69100000Y-93700000D03*
%TD*%
D33*
%TO.N,+5V{slash}1*%
X71810000Y-64805000D02*
X72100000Y-64515000D01*
X72100000Y-64515000D02*
X72100000Y-45000000D01*
X72100000Y-45000000D02*
X72900000Y-44200000D01*
X72900000Y-44200000D02*
X73400000Y-44200000D01*
X73400000Y-44200000D02*
X73440000Y-44160000D01*
X73440000Y-44160000D02*
X73860000Y-44160000D01*
%TO.N,+12V*%
X117225000Y-68175000D02*
X117225000Y-66325000D01*
X117225000Y-66325000D02*
X115100000Y-64200000D01*
X113600000Y-64200000D02*
X115100000Y-64200000D01*
X118100000Y-67200000D02*
X118200000Y-67200000D01*
%TO.N,Net-(A4988_1-Pin_5)*%
X143560000Y-59900000D02*
X143560000Y-58140000D01*
X143560000Y-58140000D02*
X145100000Y-56600000D01*
X145100000Y-56600000D02*
X146100000Y-56600000D01*
%TO.N,Net-(LAMP1-G)*%
X123800000Y-69600000D02*
X125100000Y-69600000D01*
X125100000Y-69600000D02*
X127740000Y-72240000D01*
X127740000Y-72240000D02*
X127740000Y-74550000D01*
%TO.N,+12V*%
X117225000Y-69765000D02*
X117225000Y-68175000D01*
X117225000Y-68175000D02*
X118200000Y-67200000D01*
%TO.N,Net-(Q1-C)*%
X121000000Y-67200000D02*
X121000000Y-69600000D01*
X113730000Y-60050000D02*
X115250000Y-60050000D01*
X115250000Y-60050000D02*
X121000000Y-65800000D01*
X121000000Y-65800000D02*
X121000000Y-67200000D01*
%TO.N,Net-(Q1-B)*%
X111190000Y-60050000D02*
X111190000Y-56990000D01*
X111190000Y-56990000D02*
X108500000Y-54300000D01*
X108500000Y-54300000D02*
X106200000Y-54300000D01*
%TO.N,Led*%
X104300000Y-51500000D02*
X106200000Y-51500000D01*
X102400000Y-49600000D02*
X104300000Y-51500000D01*
X101800000Y-46700000D02*
X101800000Y-49000000D01*
X101800000Y-49000000D02*
X102400000Y-49600000D01*
%TO.N,+3V3*%
X137700000Y-78100000D02*
X135700000Y-78100000D01*
X135700000Y-78100000D02*
X110300000Y-52700000D01*
X136800000Y-78100000D02*
X137700000Y-78100000D01*
%TO.N,DIR*%
X133620000Y-71220000D02*
X131720000Y-71220000D01*
X131720000Y-71220000D02*
X109420000Y-48920000D01*
X109420000Y-48920000D02*
X109420000Y-46700000D01*
%TO.N,STEP*%
X136160000Y-67920000D02*
X131220000Y-67920000D01*
X131220000Y-67920000D02*
X111960000Y-48660000D01*
X111960000Y-48660000D02*
X111960000Y-46700000D01*
D34*
%TO.N,+5V{slash}1*%
X80420000Y-89367500D02*
X80420000Y-88320000D01*
X80420000Y-88320000D02*
X78500000Y-86400000D01*
X78500000Y-86400000D02*
X77400000Y-86400000D01*
X77380000Y-89367500D02*
X77380000Y-87520000D01*
X77380000Y-87520000D02*
X77400000Y-87500000D01*
D33*
X73800000Y-82800000D02*
X77400000Y-86400000D01*
X68600000Y-72700000D02*
X68600000Y-75200000D01*
X70800000Y-70500000D02*
X68600000Y-72700000D01*
X77400000Y-86400000D02*
X77400000Y-87500000D01*
X71810000Y-64805000D02*
X71810000Y-69490000D01*
X71810000Y-69490000D02*
X70800000Y-70500000D01*
X68600000Y-75200000D02*
X68600000Y-77600000D01*
X68600000Y-77600000D02*
X73800000Y-82800000D01*
%TO.N,/UART_TX*%
X81480000Y-44160000D02*
X81480000Y-39380000D01*
X81480000Y-39380000D02*
X81300000Y-39200000D01*
%TO.N,+5V{slash}1*%
X76400000Y-44160000D02*
X76400000Y-39380000D01*
X76400000Y-39380000D02*
X76220000Y-39200000D01*
X73860000Y-44160000D02*
X76400000Y-44160000D01*
%TO.N,+3V3*%
X136160000Y-80600000D02*
X136160000Y-78740000D01*
X136160000Y-78740000D02*
X136800000Y-78100000D01*
X137700000Y-78100000D02*
X149500000Y-78100000D01*
X149500000Y-78100000D02*
X153300000Y-74300000D01*
X153300000Y-74300000D02*
X153300000Y-50000000D01*
X153300000Y-50000000D02*
X150520000Y-47220000D01*
X150520000Y-47220000D02*
X148640000Y-47220000D01*
%TO.N,+12V*%
X151400000Y-80600000D02*
X151400000Y-91180000D01*
X151400000Y-91180000D02*
X148280000Y-94300000D01*
X148280000Y-94300000D02*
X133700000Y-94300000D01*
X133700000Y-94300000D02*
X129600000Y-90200000D01*
X125300000Y-90200000D02*
X120900000Y-94600000D01*
X129600000Y-90200000D02*
X125300000Y-90200000D01*
X120900000Y-94600000D02*
X118800000Y-94600000D01*
X118800000Y-94600000D02*
X117225000Y-93025000D01*
X117225000Y-93025000D02*
X117225000Y-91515000D01*
%TO.N,DIR_1*%
X119580000Y-46700000D02*
X119600000Y-46720000D01*
X119600000Y-46720000D02*
X119600000Y-49800000D01*
X119600000Y-49800000D02*
X121700000Y-51900000D01*
X121700000Y-51900000D02*
X149240000Y-51900000D01*
X149240000Y-51900000D02*
X151180000Y-53840000D01*
X151180000Y-53840000D02*
X151180000Y-56600000D01*
%TO.N,STEP_1*%
X120200000Y-53820000D02*
X119720000Y-53820000D01*
X119720000Y-53820000D02*
X117100000Y-51200000D01*
%TO.N,Net-(A4988-Pin_13)*%
X141280000Y-91320000D02*
X141280000Y-80640000D01*
%TO.N,Net-(A4988-Pin_5)*%
X138700000Y-69280000D02*
X140060000Y-67920000D01*
%TO.N,Net-(A4988_1-Pin_14)*%
X146100000Y-43920000D02*
X146100000Y-38735000D01*
%TO.N,Net-(A4988_1-Pin_12)*%
X141020000Y-38735000D02*
X140990000Y-38705000D01*
X141020000Y-43920000D02*
X141020000Y-38735000D01*
%TO.N,Net-(A4988-Pin_14)*%
X138740000Y-91320000D02*
X138740000Y-83940000D01*
%TO.N,Net-(A4988_1-Pin_13)*%
X143560000Y-47220000D02*
X143560000Y-38735000D01*
%TO.N,Net-(A4988-Pin_11)*%
X146360000Y-91320000D02*
X146360000Y-80640000D01*
%TO.N,Net-(A4988-Pin_13)*%
X141280000Y-80640000D02*
X141240000Y-80600000D01*
%TO.N,STEP_1*%
X148640000Y-59900000D02*
X148640000Y-55100000D01*
%TO.N,Net-(A4988-Pin_14)*%
X138740000Y-83940000D02*
X138700000Y-83900000D01*
%TO.N,Net-(A4988-Pin_11)*%
X146360000Y-80640000D02*
X146320000Y-80600000D01*
%TO.N,Net-(A4988-Pin_12)*%
X143820000Y-91320000D02*
X143820000Y-83940000D01*
%TO.N,Net-(A4988-Pin_5)*%
X140060000Y-67920000D02*
X141240000Y-67920000D01*
%TO.N,Net-(A4988-Pin_12)*%
X143820000Y-83940000D02*
X143780000Y-83900000D01*
%TO.N,Net-(A4988_1-Pin_13)*%
X143560000Y-38735000D02*
X143530000Y-38705000D01*
%TO.N,Net-(A4988-Pin_5)*%
X138700000Y-71220000D02*
X138700000Y-69280000D01*
%TO.N,Net-(A4988_1-Pin_14)*%
X146100000Y-38735000D02*
X146070000Y-38705000D01*
%TO.N,STEP_1*%
X147360000Y-53820000D02*
X120200000Y-53820000D01*
%TO.N,Net-(A4988_1-Pin_11)*%
X138480000Y-38735000D02*
X138450000Y-38705000D01*
X138480000Y-47220000D02*
X138480000Y-38735000D01*
%TO.N,STEP_1*%
X148640000Y-55100000D02*
X147360000Y-53820000D01*
X117100000Y-46760000D02*
X117040000Y-46700000D01*
X117100000Y-51200000D02*
X117100000Y-46760000D01*
%TO.N,+12V*%
X117225000Y-91515000D02*
X117225000Y-69765000D01*
%TO.N,LAMP*%
X119765000Y-91515000D02*
X125200000Y-86080000D01*
X125200000Y-86080000D02*
X125200000Y-83700000D01*
%TO.N,+12V*%
X126500000Y-48900000D02*
X131720000Y-48900000D01*
X131720000Y-48900000D02*
X133400000Y-47220000D01*
%TO.N,+3V3*%
X99149152Y-49999000D02*
X95899000Y-49999000D01*
D34*
X110300000Y-52700000D02*
X101850152Y-52700000D01*
D33*
X101850152Y-52700000D02*
X99149152Y-49999000D01*
X94180000Y-48280000D02*
X94180000Y-46700000D01*
X95899000Y-49999000D02*
X94180000Y-48280000D01*
%TD*%
%TA.AperFunction,Conductor*%
%TO.N,GND*%
G36*
X85307226Y-44795524D02*
G01*
X85319810Y-44794985D01*
X85339674Y-44806581D01*
X85361444Y-44813999D01*
X85370719Y-44824703D01*
X85380151Y-44830209D01*
X85400486Y-44859056D01*
X85404951Y-44867820D01*
X85529890Y-45039786D01*
X85680213Y-45190109D01*
X85852182Y-45315050D01*
X85860946Y-45319516D01*
X85911742Y-45367491D01*
X85928536Y-45435312D01*
X85905998Y-45501447D01*
X85860946Y-45540484D01*
X85852182Y-45544949D01*
X85680213Y-45669890D01*
X85529890Y-45820213D01*
X85404951Y-45992179D01*
X85308444Y-46181585D01*
X85242753Y-46383760D01*
X85213665Y-46567416D01*
X85209500Y-46593713D01*
X85209500Y-46806287D01*
X85242754Y-47016243D01*
X85276895Y-47121319D01*
X85308444Y-47218414D01*
X85404951Y-47407820D01*
X85529890Y-47579786D01*
X85680213Y-47730109D01*
X85852179Y-47855048D01*
X85852181Y-47855049D01*
X85852184Y-47855051D01*
X86041588Y-47951557D01*
X86243757Y-48017246D01*
X86453713Y-48050500D01*
X86453714Y-48050500D01*
X86666286Y-48050500D01*
X86666287Y-48050500D01*
X86876243Y-48017246D01*
X87078412Y-47951557D01*
X87267816Y-47855051D01*
X87354138Y-47792335D01*
X87439786Y-47730109D01*
X87439788Y-47730106D01*
X87439792Y-47730104D01*
X87590104Y-47579792D01*
X87590106Y-47579788D01*
X87590109Y-47579786D01*
X87715048Y-47407820D01*
X87715049Y-47407819D01*
X87715051Y-47407816D01*
X87719514Y-47399054D01*
X87767488Y-47348259D01*
X87835308Y-47331463D01*
X87901444Y-47353999D01*
X87940486Y-47399056D01*
X87944951Y-47407820D01*
X88069890Y-47579786D01*
X88220213Y-47730109D01*
X88392179Y-47855048D01*
X88392181Y-47855049D01*
X88392184Y-47855051D01*
X88581588Y-47951557D01*
X88783757Y-48017246D01*
X88993713Y-48050500D01*
X88993714Y-48050500D01*
X89206286Y-48050500D01*
X89206287Y-48050500D01*
X89416243Y-48017246D01*
X89618412Y-47951557D01*
X89807816Y-47855051D01*
X89894138Y-47792335D01*
X89979786Y-47730109D01*
X89979788Y-47730106D01*
X89979792Y-47730104D01*
X90130104Y-47579792D01*
X90130106Y-47579788D01*
X90130109Y-47579786D01*
X90255048Y-47407820D01*
X90255049Y-47407819D01*
X90255051Y-47407816D01*
X90259514Y-47399054D01*
X90307488Y-47348259D01*
X90375308Y-47331463D01*
X90441444Y-47353999D01*
X90480486Y-47399056D01*
X90484951Y-47407820D01*
X90609890Y-47579786D01*
X90760213Y-47730109D01*
X90932179Y-47855048D01*
X90932181Y-47855049D01*
X90932184Y-47855051D01*
X91121588Y-47951557D01*
X91323757Y-48017246D01*
X91533713Y-48050500D01*
X91533714Y-48050500D01*
X91746286Y-48050500D01*
X91746287Y-48050500D01*
X91956243Y-48017246D01*
X92158412Y-47951557D01*
X92347816Y-47855051D01*
X92434138Y-47792335D01*
X92519786Y-47730109D01*
X92519788Y-47730106D01*
X92519792Y-47730104D01*
X92670104Y-47579792D01*
X92670106Y-47579788D01*
X92670109Y-47579786D01*
X92795048Y-47407820D01*
X92795049Y-47407819D01*
X92795051Y-47407816D01*
X92799514Y-47399054D01*
X92847488Y-47348259D01*
X92915308Y-47331463D01*
X92981444Y-47353999D01*
X93020486Y-47399056D01*
X93024951Y-47407820D01*
X93152759Y-47583734D01*
X93151888Y-47584366D01*
X93178357Y-47643401D01*
X93179500Y-47660199D01*
X93179500Y-48378541D01*
X93179500Y-48378543D01*
X93179499Y-48378543D01*
X93217947Y-48571829D01*
X93217950Y-48571839D01*
X93293364Y-48753907D01*
X93293371Y-48753920D01*
X93402860Y-48917781D01*
X93402863Y-48917785D01*
X93546537Y-49061459D01*
X93546559Y-49061479D01*
X95048422Y-50563342D01*
X95081907Y-50624665D01*
X95076923Y-50694357D01*
X95035051Y-50750290D01*
X94969587Y-50774707D01*
X94937956Y-50772912D01*
X94730957Y-50734217D01*
X94637737Y-50716791D01*
X93859724Y-50608263D01*
X93859704Y-50608261D01*
X93077497Y-50535779D01*
X92419144Y-50505342D01*
X92292781Y-50499500D01*
X91507219Y-50499500D01*
X91387292Y-50505044D01*
X90722502Y-50535779D01*
X89940295Y-50608261D01*
X89940275Y-50608263D01*
X89162262Y-50716791D01*
X88686843Y-50805663D01*
X88390074Y-50861139D01*
X88390068Y-50861140D01*
X88390054Y-50861143D01*
X87625375Y-51040993D01*
X87625368Y-51040995D01*
X86869825Y-51255966D01*
X86869796Y-51255975D01*
X86124981Y-51505612D01*
X86124968Y-51505616D01*
X86124968Y-51505617D01*
X85392454Y-51789394D01*
X85392445Y-51789398D01*
X85392411Y-51789412D01*
X84673832Y-52106696D01*
X83970643Y-52456842D01*
X83970606Y-52456862D01*
X83284349Y-52839105D01*
X83284327Y-52839118D01*
X82616444Y-53252654D01*
X81968352Y-53696606D01*
X81341488Y-54169992D01*
X81341446Y-54170025D01*
X80737107Y-54671862D01*
X80737093Y-54671874D01*
X80156599Y-55201064D01*
X80156548Y-55201113D01*
X79601113Y-55756548D01*
X79601064Y-55756599D01*
X79071874Y-56337093D01*
X79071862Y-56337107D01*
X78570025Y-56941446D01*
X78569992Y-56941488D01*
X78096606Y-57568352D01*
X77652654Y-58216444D01*
X77239118Y-58884327D01*
X77239105Y-58884349D01*
X76856862Y-59570606D01*
X76856842Y-59570643D01*
X76506696Y-60273832D01*
X76189412Y-60992411D01*
X76189398Y-60992444D01*
X76189394Y-60992454D01*
X76024213Y-61418837D01*
X75905612Y-61724981D01*
X75655975Y-62469796D01*
X75655966Y-62469825D01*
X75440995Y-63225368D01*
X75440993Y-63225375D01*
X75261143Y-63990054D01*
X75116791Y-64762262D01*
X75008263Y-65540275D01*
X75008261Y-65540295D01*
X74935779Y-66322502D01*
X74908057Y-66922127D01*
X74899500Y-67107219D01*
X74899500Y-67131894D01*
X74899500Y-67892781D01*
X74903431Y-67977797D01*
X74935779Y-68677497D01*
X75008261Y-69459704D01*
X75008263Y-69459724D01*
X75116791Y-70237737D01*
X75145311Y-70390302D01*
X75254703Y-70975499D01*
X75261143Y-71009945D01*
X75440993Y-71774624D01*
X75440995Y-71774631D01*
X75655966Y-72530174D01*
X75655975Y-72530203D01*
X75780269Y-72901047D01*
X75905617Y-73275032D01*
X76189394Y-74007546D01*
X76189398Y-74007554D01*
X76189412Y-74007588D01*
X76506696Y-74726167D01*
X76856842Y-75429356D01*
X76856862Y-75429393D01*
X77129474Y-75918824D01*
X77239111Y-76115661D01*
X77652656Y-76783559D01*
X77847952Y-77068656D01*
X78096606Y-77431647D01*
X78407067Y-77842763D01*
X78570011Y-78058536D01*
X79071864Y-78662895D01*
X79071873Y-78662905D01*
X79071874Y-78662906D01*
X79601064Y-79243400D01*
X79601078Y-79243415D01*
X79601093Y-79243431D01*
X80156569Y-79798907D01*
X80156585Y-79798922D01*
X80156599Y-79798935D01*
X80564396Y-80170691D01*
X80737105Y-80328136D01*
X81341464Y-80829989D01*
X81541007Y-80980677D01*
X81846520Y-81211390D01*
X81968355Y-81303395D01*
X82616441Y-81747344D01*
X83284339Y-82160889D01*
X83970622Y-82543146D01*
X83970630Y-82543150D01*
X83970643Y-82543157D01*
X84673832Y-82893303D01*
X84693819Y-82902128D01*
X85392454Y-83210606D01*
X86124968Y-83494383D01*
X86869806Y-83744028D01*
X87625379Y-83959007D01*
X88390074Y-84138861D01*
X89162259Y-84283208D01*
X89940287Y-84391738D01*
X90722497Y-84464220D01*
X91507219Y-84500500D01*
X91507222Y-84500500D01*
X92292778Y-84500500D01*
X92292781Y-84500500D01*
X93077503Y-84464220D01*
X93859713Y-84391738D01*
X94637741Y-84283208D01*
X95409926Y-84138861D01*
X96174621Y-83959007D01*
X96930194Y-83744028D01*
X97675032Y-83494383D01*
X98407546Y-83210606D01*
X99126172Y-82893301D01*
X99829378Y-82543146D01*
X100515661Y-82160889D01*
X101183559Y-81747344D01*
X101831645Y-81303395D01*
X102458536Y-80829989D01*
X103062895Y-80328136D01*
X103643431Y-79798907D01*
X104198907Y-79243431D01*
X104728136Y-78662895D01*
X105229989Y-78058536D01*
X105703395Y-77431645D01*
X106147344Y-76783559D01*
X106560889Y-76115661D01*
X106943146Y-75429378D01*
X107293301Y-74726172D01*
X107610606Y-74007546D01*
X107894383Y-73275032D01*
X108144028Y-72530194D01*
X108359007Y-71774621D01*
X108538861Y-71009926D01*
X108683208Y-70237741D01*
X108791738Y-69459713D01*
X108864220Y-68677503D01*
X108900500Y-67892781D01*
X108900500Y-67107219D01*
X108864220Y-66322497D01*
X108791738Y-65540287D01*
X108683208Y-64762259D01*
X108538861Y-63990074D01*
X108359007Y-63225379D01*
X108144028Y-62469806D01*
X107894383Y-61724968D01*
X107610606Y-60992454D01*
X107507435Y-60758794D01*
X107293303Y-60273832D01*
X106943157Y-59570643D01*
X106943137Y-59570606D01*
X106942783Y-59569970D01*
X106560889Y-58884339D01*
X106147344Y-58216441D01*
X105703395Y-57568355D01*
X105653451Y-57502219D01*
X105230007Y-56941488D01*
X105229989Y-56941464D01*
X104728136Y-56337105D01*
X104683119Y-56287724D01*
X104198935Y-55756599D01*
X104198922Y-55756585D01*
X104198907Y-55756569D01*
X103643431Y-55201093D01*
X103643415Y-55201078D01*
X103643400Y-55201064D01*
X103062906Y-54671874D01*
X103062905Y-54671873D01*
X103062895Y-54671864D01*
X102458536Y-54170011D01*
X102370492Y-54103523D01*
X102080782Y-53884744D01*
X102039146Y-53828635D01*
X102034455Y-53758923D01*
X102068197Y-53697741D01*
X102129660Y-53664514D01*
X102131157Y-53664205D01*
X102141988Y-53662051D01*
X102324066Y-53586631D01*
X102407088Y-53531158D01*
X102492998Y-53473755D01*
X102494018Y-53475282D01*
X102550406Y-53451334D01*
X102564761Y-53450500D01*
X104769883Y-53450500D01*
X104836922Y-53470185D01*
X104882677Y-53522989D01*
X104892621Y-53592147D01*
X104887589Y-53613501D01*
X104859675Y-53697741D01*
X104835001Y-53772203D01*
X104835000Y-53772204D01*
X104824500Y-53874983D01*
X104824500Y-54725001D01*
X104824501Y-54725008D01*
X104835000Y-54827796D01*
X104835001Y-54827799D01*
X104859313Y-54901166D01*
X104890186Y-54994334D01*
X104982288Y-55143656D01*
X105106344Y-55267712D01*
X105255666Y-55359814D01*
X105422203Y-55414999D01*
X105524991Y-55425500D01*
X106875008Y-55425499D01*
X106977797Y-55414999D01*
X107144334Y-55359814D01*
X107187299Y-55333312D01*
X107210568Y-55318961D01*
X107275664Y-55300500D01*
X108034218Y-55300500D01*
X108101257Y-55320185D01*
X108121899Y-55336819D01*
X110153181Y-57368101D01*
X110186666Y-57429424D01*
X110189500Y-57455782D01*
X110189500Y-59259301D01*
X110169815Y-59326340D01*
X110165818Y-59332186D01*
X110120478Y-59394591D01*
X110031117Y-59569970D01*
X109970290Y-59757173D01*
X109939500Y-59951577D01*
X109939500Y-60148422D01*
X109970290Y-60342826D01*
X110031117Y-60530029D01*
X110120475Y-60705403D01*
X110120476Y-60705405D01*
X110236172Y-60864646D01*
X110375354Y-61003828D01*
X110534595Y-61119524D01*
X110617455Y-61161743D01*
X110709970Y-61208882D01*
X110709972Y-61208882D01*
X110709975Y-61208884D01*
X110810317Y-61241487D01*
X110897173Y-61269709D01*
X111091578Y-61300500D01*
X111091583Y-61300500D01*
X111288422Y-61300500D01*
X111482826Y-61269709D01*
X111670025Y-61208884D01*
X111845405Y-61119524D01*
X112004646Y-61003828D01*
X112143828Y-60864646D01*
X112259524Y-60705405D01*
X112348884Y-60530025D01*
X112349515Y-60528787D01*
X112397489Y-60477990D01*
X112465310Y-60461195D01*
X112531445Y-60483732D01*
X112570485Y-60528787D01*
X112660474Y-60705403D01*
X112695234Y-60753246D01*
X112776172Y-60864646D01*
X112915354Y-61003828D01*
X113074595Y-61119524D01*
X113157455Y-61161743D01*
X113249970Y-61208882D01*
X113249972Y-61208882D01*
X113249975Y-61208884D01*
X113350317Y-61241487D01*
X113437173Y-61269709D01*
X113631578Y-61300500D01*
X113631583Y-61300500D01*
X113828422Y-61300500D01*
X114022826Y-61269709D01*
X114210025Y-61208884D01*
X114385405Y-61119524D01*
X114413896Y-61098823D01*
X114447814Y-61074182D01*
X114513620Y-61050702D01*
X114520699Y-61050500D01*
X114784218Y-61050500D01*
X114851257Y-61070185D01*
X114871899Y-61086819D01*
X119911132Y-66126052D01*
X119944617Y-66187375D01*
X119941157Y-66252737D01*
X119940186Y-66255664D01*
X119940186Y-66255666D01*
X119885001Y-66422203D01*
X119885001Y-66422204D01*
X119885000Y-66422204D01*
X119874500Y-66524983D01*
X119874500Y-67875001D01*
X119874501Y-67875018D01*
X119885000Y-67977796D01*
X119885001Y-67977799D01*
X119940185Y-68144331D01*
X119940190Y-68144342D01*
X119981038Y-68210566D01*
X119985733Y-68227123D01*
X119994477Y-68240728D01*
X119999500Y-68275663D01*
X119999500Y-68524336D01*
X119981039Y-68589432D01*
X119940189Y-68655659D01*
X119940186Y-68655666D01*
X119885001Y-68822203D01*
X119885001Y-68822204D01*
X119885000Y-68822204D01*
X119874500Y-68924983D01*
X119874500Y-70275001D01*
X119874501Y-70275018D01*
X119885000Y-70377796D01*
X119885001Y-70377799D01*
X119926604Y-70503347D01*
X119940186Y-70544334D01*
X120032288Y-70693656D01*
X120156344Y-70817712D01*
X120305666Y-70909814D01*
X120472203Y-70964999D01*
X120574991Y-70975500D01*
X121425008Y-70975499D01*
X121425016Y-70975498D01*
X121425019Y-70975498D01*
X121481302Y-70969748D01*
X121527797Y-70964999D01*
X121694334Y-70909814D01*
X121843656Y-70817712D01*
X121967712Y-70693656D01*
X122059814Y-70544334D01*
X122114999Y-70377797D01*
X122125500Y-70275009D01*
X122125499Y-68924992D01*
X122125072Y-68920816D01*
X122114999Y-68822203D01*
X122114998Y-68822200D01*
X122101510Y-68781496D01*
X122059814Y-68655666D01*
X122051519Y-68642218D01*
X122018961Y-68589432D01*
X122014265Y-68572874D01*
X122005523Y-68559271D01*
X122000500Y-68524336D01*
X122000500Y-68275663D01*
X122018962Y-68210566D01*
X122059809Y-68144342D01*
X122059808Y-68144342D01*
X122059814Y-68144334D01*
X122114999Y-67977797D01*
X122125500Y-67875009D01*
X122125499Y-66524992D01*
X122125235Y-66522412D01*
X122114999Y-66422203D01*
X122114998Y-66422200D01*
X122081961Y-66322502D01*
X122059814Y-66255666D01*
X122058007Y-66252737D01*
X122018961Y-66189432D01*
X122014265Y-66172874D01*
X122005523Y-66159271D01*
X122000500Y-66124336D01*
X122000500Y-66114782D01*
X122020185Y-66047743D01*
X122072989Y-66001988D01*
X122142147Y-65992044D01*
X122205703Y-66021069D01*
X122212181Y-66027101D01*
X124197899Y-68012819D01*
X124231384Y-68074142D01*
X124226400Y-68143834D01*
X124184528Y-68199767D01*
X124119064Y-68224184D01*
X124110218Y-68224500D01*
X123374998Y-68224500D01*
X123374980Y-68224501D01*
X123272203Y-68235000D01*
X123272200Y-68235001D01*
X123105668Y-68290185D01*
X123105663Y-68290187D01*
X122956342Y-68382289D01*
X122832289Y-68506342D01*
X122740187Y-68655663D01*
X122740186Y-68655666D01*
X122685001Y-68822203D01*
X122685001Y-68822204D01*
X122685000Y-68822204D01*
X122674500Y-68924983D01*
X122674500Y-70275001D01*
X122674501Y-70275018D01*
X122685000Y-70377796D01*
X122685001Y-70377799D01*
X122726604Y-70503347D01*
X122740186Y-70544334D01*
X122832288Y-70693656D01*
X122956344Y-70817712D01*
X123105666Y-70909814D01*
X123272203Y-70964999D01*
X123374991Y-70975500D01*
X124225008Y-70975499D01*
X124225016Y-70975498D01*
X124225019Y-70975498D01*
X124281302Y-70969748D01*
X124327797Y-70964999D01*
X124494334Y-70909814D01*
X124643656Y-70817712D01*
X124685543Y-70775825D01*
X124746866Y-70742340D01*
X124816558Y-70747324D01*
X124860905Y-70775825D01*
X126653181Y-72568101D01*
X126686666Y-72629424D01*
X126689500Y-72655782D01*
X126689500Y-76650001D01*
X126689501Y-76650018D01*
X126700000Y-76752796D01*
X126700001Y-76752799D01*
X126755185Y-76919331D01*
X126755186Y-76919334D01*
X126847288Y-77068656D01*
X126971344Y-77192712D01*
X127120666Y-77284814D01*
X127287203Y-77339999D01*
X127389991Y-77350500D01*
X128090008Y-77350499D01*
X128090016Y-77350498D01*
X128090019Y-77350498D01*
X128146302Y-77344748D01*
X128192797Y-77339999D01*
X128359334Y-77284814D01*
X128508656Y-77192712D01*
X128632712Y-77068656D01*
X128724814Y-76919334D01*
X128779999Y-76752797D01*
X128790500Y-76650009D01*
X128790499Y-72904780D01*
X128810184Y-72837742D01*
X128862988Y-72791987D01*
X128932146Y-72782043D01*
X128995702Y-72811068D01*
X129002179Y-72817099D01*
X134922860Y-78737781D01*
X134922861Y-78737782D01*
X135062218Y-78877139D01*
X135104392Y-78905318D01*
X135149195Y-78958928D01*
X135159500Y-79008419D01*
X135159500Y-81597870D01*
X135159501Y-81597876D01*
X135165908Y-81657483D01*
X135216202Y-81792328D01*
X135216206Y-81792335D01*
X135302452Y-81907544D01*
X135302455Y-81907547D01*
X135417664Y-81993793D01*
X135417671Y-81993797D01*
X135552517Y-82044091D01*
X135552516Y-82044091D01*
X135559444Y-82044835D01*
X135612127Y-82050500D01*
X136707872Y-82050499D01*
X136767483Y-82044091D01*
X136902331Y-81993796D01*
X137017546Y-81907546D01*
X137103796Y-81792331D01*
X137154091Y-81657483D01*
X137160500Y-81597873D01*
X137160500Y-80698540D01*
X137160500Y-79224500D01*
X137180185Y-79157461D01*
X137232989Y-79111706D01*
X137284500Y-79100500D01*
X140278429Y-79100500D01*
X140345468Y-79120185D01*
X140391223Y-79172989D01*
X140401167Y-79242147D01*
X140377695Y-79298811D01*
X140296206Y-79407664D01*
X140296202Y-79407671D01*
X140245908Y-79542517D01*
X140239501Y-79602116D01*
X140239501Y-79602123D01*
X140239500Y-79602135D01*
X140239500Y-81597870D01*
X140239501Y-81597876D01*
X140245908Y-81657483D01*
X140271682Y-81726584D01*
X140279500Y-81769917D01*
X140279500Y-90199140D01*
X140259815Y-90266179D01*
X140207011Y-90311934D01*
X140137853Y-90321878D01*
X140074297Y-90292853D01*
X140039318Y-90242473D01*
X140033797Y-90227671D01*
X140033793Y-90227664D01*
X139947547Y-90112455D01*
X139947544Y-90112452D01*
X139832335Y-90026206D01*
X139832332Y-90026205D01*
X139832331Y-90026204D01*
X139821161Y-90022038D01*
X139765231Y-89980166D01*
X139740816Y-89914701D01*
X139740500Y-89905858D01*
X139740500Y-84044675D01*
X139740501Y-84044654D01*
X139740501Y-83841457D01*
X139740500Y-83841455D01*
X139702882Y-83652334D01*
X139700499Y-83628143D01*
X139700499Y-82902129D01*
X139700498Y-82902123D01*
X139700497Y-82902116D01*
X139694091Y-82842517D01*
X139643796Y-82707669D01*
X139643795Y-82707668D01*
X139643793Y-82707664D01*
X139557547Y-82592455D01*
X139557544Y-82592452D01*
X139442335Y-82506206D01*
X139442328Y-82506202D01*
X139307482Y-82455908D01*
X139307483Y-82455908D01*
X139247883Y-82449501D01*
X139247881Y-82449500D01*
X139247873Y-82449500D01*
X139247864Y-82449500D01*
X138152129Y-82449500D01*
X138152123Y-82449501D01*
X138092516Y-82455908D01*
X137957671Y-82506202D01*
X137957664Y-82506206D01*
X137842455Y-82592452D01*
X137842452Y-82592455D01*
X137756206Y-82707664D01*
X137756202Y-82707671D01*
X137705908Y-82842517D01*
X137699501Y-82902116D01*
X137699501Y-82902123D01*
X137699500Y-82902135D01*
X137699500Y-84897870D01*
X137699501Y-84897876D01*
X137705908Y-84957483D01*
X137731682Y-85026584D01*
X137739500Y-85069917D01*
X137739500Y-89905858D01*
X137719815Y-89972897D01*
X137667011Y-90018652D01*
X137658847Y-90022034D01*
X137647669Y-90026204D01*
X137647664Y-90026206D01*
X137532455Y-90112452D01*
X137532452Y-90112455D01*
X137446206Y-90227664D01*
X137446202Y-90227671D01*
X137395908Y-90362517D01*
X137389501Y-90422116D01*
X137389500Y-90422135D01*
X137389500Y-92217870D01*
X137389501Y-92217876D01*
X137395908Y-92277483D01*
X137446202Y-92412328D01*
X137446206Y-92412335D01*
X137532452Y-92527544D01*
X137532455Y-92527547D01*
X137647664Y-92613793D01*
X137647671Y-92613797D01*
X137782517Y-92664091D01*
X137782516Y-92664091D01*
X137789444Y-92664835D01*
X137842127Y-92670500D01*
X139637872Y-92670499D01*
X139697483Y-92664091D01*
X139832331Y-92613796D01*
X139947546Y-92527546D01*
X140033796Y-92412331D01*
X140082810Y-92280916D01*
X140124681Y-92224984D01*
X140190145Y-92200566D01*
X140258418Y-92215417D01*
X140286673Y-92236569D01*
X140400213Y-92350109D01*
X140572179Y-92475048D01*
X140572181Y-92475049D01*
X140572184Y-92475051D01*
X140761588Y-92571557D01*
X140963757Y-92637246D01*
X141173713Y-92670500D01*
X141173714Y-92670500D01*
X141386286Y-92670500D01*
X141386287Y-92670500D01*
X141596243Y-92637246D01*
X141798412Y-92571557D01*
X141987816Y-92475051D01*
X142074138Y-92412335D01*
X142159786Y-92350109D01*
X142159788Y-92350106D01*
X142159792Y-92350104D01*
X142310104Y-92199792D01*
X142310106Y-92199788D01*
X142310109Y-92199786D01*
X142430985Y-92033412D01*
X142435051Y-92027816D01*
X142439514Y-92019054D01*
X142487488Y-91968259D01*
X142555308Y-91951463D01*
X142621444Y-91973999D01*
X142660486Y-92019056D01*
X142664951Y-92027820D01*
X142789890Y-92199786D01*
X142940213Y-92350109D01*
X143112179Y-92475048D01*
X143112181Y-92475049D01*
X143112184Y-92475051D01*
X143301588Y-92571557D01*
X143503757Y-92637246D01*
X143713713Y-92670500D01*
X143713714Y-92670500D01*
X143926286Y-92670500D01*
X143926287Y-92670500D01*
X144136243Y-92637246D01*
X144338412Y-92571557D01*
X144527816Y-92475051D01*
X144614138Y-92412335D01*
X144699786Y-92350109D01*
X144699788Y-92350106D01*
X144699792Y-92350104D01*
X144850104Y-92199792D01*
X144850106Y-92199788D01*
X144850109Y-92199786D01*
X144970985Y-92033412D01*
X144975051Y-92027816D01*
X144979514Y-92019054D01*
X145027488Y-91968259D01*
X145095308Y-91951463D01*
X145161444Y-91973999D01*
X145200486Y-92019056D01*
X145204951Y-92027820D01*
X145329890Y-92199786D01*
X145480213Y-92350109D01*
X145652179Y-92475048D01*
X145652181Y-92475049D01*
X145652184Y-92475051D01*
X145841588Y-92571557D01*
X146043757Y-92637246D01*
X146253713Y-92670500D01*
X146253714Y-92670500D01*
X146466286Y-92670500D01*
X146466287Y-92670500D01*
X146676243Y-92637246D01*
X146878412Y-92571557D01*
X147067816Y-92475051D01*
X147154138Y-92412335D01*
X147239786Y-92350109D01*
X147239788Y-92350106D01*
X147239792Y-92350104D01*
X147390104Y-92199792D01*
X147390106Y-92199788D01*
X147390109Y-92199786D01*
X147510985Y-92033412D01*
X147515051Y-92027816D01*
X147611557Y-91838412D01*
X147677246Y-91636243D01*
X147710500Y-91426287D01*
X147710500Y-91213713D01*
X147677246Y-91003757D01*
X147611557Y-90801588D01*
X147515051Y-90612184D01*
X147515049Y-90612181D01*
X147515048Y-90612179D01*
X147387241Y-90436266D01*
X147388108Y-90435635D01*
X147361641Y-90376581D01*
X147360500Y-90359800D01*
X147360500Y-80744675D01*
X147360501Y-80744654D01*
X147360501Y-80541457D01*
X147360500Y-80541455D01*
X147322882Y-80352334D01*
X147320499Y-80328143D01*
X147320499Y-79602129D01*
X147320498Y-79602123D01*
X147320497Y-79602116D01*
X147314091Y-79542517D01*
X147307444Y-79524696D01*
X147263797Y-79407671D01*
X147263793Y-79407664D01*
X147182305Y-79298811D01*
X147157887Y-79233347D01*
X147172738Y-79165074D01*
X147222143Y-79115668D01*
X147281571Y-79100500D01*
X149598542Y-79100500D01*
X149630995Y-79094044D01*
X149695188Y-79081275D01*
X149791836Y-79062051D01*
X149864781Y-79031836D01*
X149973914Y-78986632D01*
X150137782Y-78877139D01*
X150277139Y-78737782D01*
X150277139Y-78737780D01*
X150287347Y-78727573D01*
X150287348Y-78727570D01*
X153787821Y-75227098D01*
X153849142Y-75193615D01*
X153918834Y-75198599D01*
X153974767Y-75240471D01*
X153999184Y-75305935D01*
X153999500Y-75314781D01*
X153999500Y-94995124D01*
X153999118Y-95004853D01*
X153985497Y-95177915D01*
X153982453Y-95197133D01*
X153943070Y-95361176D01*
X153937057Y-95379682D01*
X153872495Y-95535547D01*
X153863661Y-95552884D01*
X153775515Y-95696725D01*
X153764079Y-95712466D01*
X153654513Y-95840753D01*
X153640753Y-95854513D01*
X153512466Y-95964079D01*
X153496725Y-95975515D01*
X153352884Y-96063661D01*
X153335547Y-96072495D01*
X153179682Y-96137057D01*
X153161176Y-96143070D01*
X152997133Y-96182453D01*
X152977915Y-96185497D01*
X152804854Y-96199118D01*
X152795125Y-96199500D01*
X128216080Y-96199500D01*
X128149041Y-96179815D01*
X128103286Y-96127011D01*
X128093342Y-96057853D01*
X128122367Y-95994297D01*
X128162279Y-95963780D01*
X128311439Y-95891948D01*
X128311439Y-95891947D01*
X128311445Y-95891945D01*
X128549248Y-95742523D01*
X128768825Y-95567416D01*
X128967416Y-95368825D01*
X129142523Y-95149248D01*
X129291945Y-94911445D01*
X129413801Y-94658408D01*
X129506560Y-94393318D01*
X129569055Y-94119509D01*
X129572547Y-94088522D01*
X129598668Y-93856682D01*
X129600500Y-93840425D01*
X129600500Y-93559575D01*
X129578372Y-93363181D01*
X129569057Y-93280505D01*
X129569054Y-93280487D01*
X129506560Y-93006682D01*
X129506556Y-93006670D01*
X129462643Y-92881175D01*
X129413801Y-92741592D01*
X129291945Y-92488555D01*
X129142523Y-92250752D01*
X128967416Y-92031175D01*
X128768825Y-91832584D01*
X128767143Y-91831243D01*
X128670333Y-91754039D01*
X128549248Y-91657477D01*
X128311445Y-91508055D01*
X128311442Y-91508053D01*
X128058411Y-91386200D01*
X127930784Y-91341541D01*
X127874008Y-91300819D01*
X127848261Y-91235867D01*
X127861717Y-91167305D01*
X127910105Y-91116902D01*
X127971739Y-91100500D01*
X129175638Y-91100500D01*
X129242677Y-91120185D01*
X129263319Y-91136819D01*
X133000536Y-94874035D01*
X133072781Y-94946280D01*
X133125966Y-94999465D01*
X133166497Y-95026547D01*
X133273453Y-95098013D01*
X133321452Y-95117895D01*
X133437334Y-95165895D01*
X133594382Y-95197133D01*
X133611304Y-95200499D01*
X133611308Y-95200500D01*
X133611309Y-95200500D01*
X148368693Y-95200500D01*
X148368694Y-95200499D01*
X148542666Y-95165895D01*
X148624606Y-95131953D01*
X148706547Y-95098013D01*
X148813503Y-95026547D01*
X148854036Y-94999464D01*
X152099463Y-91754036D01*
X152163982Y-91657477D01*
X152198013Y-91606547D01*
X152265894Y-91442666D01*
X152269153Y-91426286D01*
X152300499Y-91268695D01*
X152300500Y-91268693D01*
X152300500Y-80501320D01*
X152300499Y-80501306D01*
X152300499Y-79618482D01*
X152297907Y-79602116D01*
X152285646Y-79524696D01*
X152228050Y-79411658D01*
X152228046Y-79411654D01*
X152228045Y-79411652D01*
X152138347Y-79321954D01*
X152138344Y-79321952D01*
X152138342Y-79321950D01*
X152061517Y-79282805D01*
X152025301Y-79264352D01*
X151931524Y-79249500D01*
X150868482Y-79249500D01*
X150787519Y-79262323D01*
X150774696Y-79264354D01*
X150661658Y-79321950D01*
X150661657Y-79321951D01*
X150661652Y-79321954D01*
X150571954Y-79411652D01*
X150571951Y-79411657D01*
X150514352Y-79524698D01*
X150499500Y-79618475D01*
X150499500Y-90755638D01*
X150479815Y-90822677D01*
X150463181Y-90843319D01*
X147943319Y-93363181D01*
X147881996Y-93396666D01*
X147855638Y-93399500D01*
X134124361Y-93399500D01*
X134057322Y-93379815D01*
X134036680Y-93363181D01*
X130174039Y-89500538D01*
X130174038Y-89500537D01*
X130145359Y-89481374D01*
X130085559Y-89441418D01*
X130026547Y-89401987D01*
X129944606Y-89368046D01*
X129939528Y-89365942D01*
X129939525Y-89365941D01*
X129862666Y-89334105D01*
X129862658Y-89334103D01*
X129688696Y-89299500D01*
X129688692Y-89299500D01*
X129688691Y-89299500D01*
X125388692Y-89299500D01*
X125211309Y-89299500D01*
X125211304Y-89299500D01*
X125037339Y-89334103D01*
X125037323Y-89334108D01*
X124921453Y-89382102D01*
X124921454Y-89382103D01*
X124873454Y-89401986D01*
X124873453Y-89401987D01*
X124814441Y-89441418D01*
X124725964Y-89500535D01*
X124725961Y-89500538D01*
X120563319Y-93663181D01*
X120501996Y-93696666D01*
X120475638Y-93699500D01*
X119224361Y-93699500D01*
X119157322Y-93679815D01*
X119136680Y-93663181D01*
X118327627Y-92854127D01*
X118294142Y-92792804D01*
X118299126Y-92723112D01*
X118327625Y-92678766D01*
X118403050Y-92603342D01*
X118460646Y-92490304D01*
X118460646Y-92490302D01*
X118460647Y-92490301D01*
X118460647Y-92490300D01*
X118475321Y-92397652D01*
X118505250Y-92334517D01*
X118564561Y-92297585D01*
X118634424Y-92298583D01*
X118692657Y-92337192D01*
X118698112Y-92344164D01*
X118734890Y-92394786D01*
X118885213Y-92545109D01*
X119057179Y-92670048D01*
X119057181Y-92670049D01*
X119057184Y-92670051D01*
X119246588Y-92766557D01*
X119448757Y-92832246D01*
X119658713Y-92865500D01*
X119658714Y-92865500D01*
X119871286Y-92865500D01*
X119871287Y-92865500D01*
X120081243Y-92832246D01*
X120283412Y-92766557D01*
X120472816Y-92670051D01*
X120564627Y-92603347D01*
X120644786Y-92545109D01*
X120644788Y-92545106D01*
X120644792Y-92545104D01*
X120795104Y-92394792D01*
X120795106Y-92394788D01*
X120795109Y-92394786D01*
X120920048Y-92222820D01*
X120920047Y-92222820D01*
X120920051Y-92222816D01*
X121016557Y-92033412D01*
X121082246Y-91831243D01*
X121115500Y-91621287D01*
X121115500Y-91621285D01*
X121116262Y-91616475D01*
X121117321Y-91616642D01*
X121140361Y-91556172D01*
X121151416Y-91543503D01*
X123758101Y-88936817D01*
X123819424Y-88903333D01*
X123845782Y-88900499D01*
X130400000Y-88900499D01*
X130400006Y-88900499D01*
X130502796Y-88889999D01*
X130669333Y-88834814D01*
X130818655Y-88742711D01*
X130942711Y-88618655D01*
X131034814Y-88469333D01*
X131089999Y-88302796D01*
X131100500Y-88200007D01*
X131100499Y-79199994D01*
X131097740Y-79172989D01*
X131089999Y-79097204D01*
X131089998Y-79097201D01*
X131067490Y-79029276D01*
X131034814Y-78930667D01*
X130942711Y-78781345D01*
X130818655Y-78657289D01*
X130669333Y-78565186D01*
X130502796Y-78510001D01*
X130502794Y-78510000D01*
X130400008Y-78499500D01*
X120000000Y-78499500D01*
X119999983Y-78499501D01*
X119897204Y-78510000D01*
X119897201Y-78510001D01*
X119730669Y-78565185D01*
X119730664Y-78565187D01*
X119581343Y-78657290D01*
X119457290Y-78781343D01*
X119365187Y-78930664D01*
X119365186Y-78930667D01*
X119310001Y-79097204D01*
X119310001Y-79097205D01*
X119310000Y-79097205D01*
X119299500Y-79199985D01*
X119299500Y-88199999D01*
X119299501Y-88200016D01*
X119310000Y-88302795D01*
X119310001Y-88302798D01*
X119365185Y-88469330D01*
X119365186Y-88469333D01*
X119457289Y-88618655D01*
X119581345Y-88742711D01*
X119730667Y-88834814D01*
X119897204Y-88889999D01*
X119999993Y-88900500D01*
X120665218Y-88900499D01*
X120732256Y-88920183D01*
X120778011Y-88972987D01*
X120787955Y-89042146D01*
X120758930Y-89105702D01*
X120752898Y-89112180D01*
X119736503Y-90128576D01*
X119675180Y-90162061D01*
X119659643Y-90164352D01*
X119448760Y-90197753D01*
X119246585Y-90263444D01*
X119057179Y-90359951D01*
X118885213Y-90484890D01*
X118734894Y-90635209D01*
X118698111Y-90685837D01*
X118642780Y-90728502D01*
X118573167Y-90734481D01*
X118511372Y-90701875D01*
X118477015Y-90641036D01*
X118475319Y-90632347D01*
X118460646Y-90539696D01*
X118403050Y-90426658D01*
X118403046Y-90426654D01*
X118403045Y-90426652D01*
X118313347Y-90336954D01*
X118313344Y-90336952D01*
X118313342Y-90336950D01*
X118200304Y-90279354D01*
X118200303Y-90279353D01*
X118193205Y-90275737D01*
X118142409Y-90227762D01*
X118125500Y-90165252D01*
X118125500Y-70789499D01*
X118145185Y-70722460D01*
X118197989Y-70676705D01*
X118249500Y-70665499D01*
X118511517Y-70665499D01*
X118511518Y-70665499D01*
X118605304Y-70650646D01*
X118718342Y-70593050D01*
X118808050Y-70503342D01*
X118865646Y-70390304D01*
X118865646Y-70390302D01*
X118865647Y-70390301D01*
X118880499Y-70296524D01*
X118880500Y-70296519D01*
X118880499Y-69233482D01*
X118865646Y-69139696D01*
X118808050Y-69026658D01*
X118808046Y-69026654D01*
X118808045Y-69026652D01*
X118718347Y-68936954D01*
X118718344Y-68936952D01*
X118718342Y-68936950D01*
X118641517Y-68897805D01*
X118605301Y-68879352D01*
X118511524Y-68864500D01*
X118511519Y-68864500D01*
X118249500Y-68864500D01*
X118240814Y-68861949D01*
X118231853Y-68863238D01*
X118207812Y-68852259D01*
X118182461Y-68844815D01*
X118176533Y-68837974D01*
X118168297Y-68834213D01*
X118154007Y-68811978D01*
X118136706Y-68792011D01*
X118134418Y-68781496D01*
X118130523Y-68775435D01*
X118125500Y-68740500D01*
X118125500Y-68599500D01*
X118145185Y-68532461D01*
X118197989Y-68486706D01*
X118249500Y-68475500D01*
X118640686Y-68475500D01*
X118640694Y-68475500D01*
X118677569Y-68472598D01*
X118677571Y-68472597D01*
X118677573Y-68472597D01*
X118719191Y-68460505D01*
X118835398Y-68426744D01*
X118976865Y-68343081D01*
X119093081Y-68226865D01*
X119176744Y-68085398D01*
X119222598Y-67927569D01*
X119225500Y-67890694D01*
X119225500Y-66509306D01*
X119222598Y-66472431D01*
X119221746Y-66469500D01*
X119176745Y-66314606D01*
X119176744Y-66314603D01*
X119176744Y-66314602D01*
X119093081Y-66173135D01*
X119093079Y-66173133D01*
X119093076Y-66173129D01*
X118976870Y-66056923D01*
X118976862Y-66056917D01*
X118835396Y-65973255D01*
X118835393Y-65973254D01*
X118677573Y-65927402D01*
X118677567Y-65927401D01*
X118640701Y-65924500D01*
X118640694Y-65924500D01*
X118106696Y-65924500D01*
X118099078Y-65922263D01*
X118091242Y-65923533D01*
X118066034Y-65912560D01*
X118039657Y-65904815D01*
X118032826Y-65898105D01*
X118027179Y-65895647D01*
X118003594Y-65869390D01*
X117973599Y-65824499D01*
X117973598Y-65824499D01*
X117924462Y-65750961D01*
X117924461Y-65750960D01*
X115674035Y-63500535D01*
X115674030Y-63500531D01*
X115619622Y-63464178D01*
X115619616Y-63464175D01*
X115614959Y-63461063D01*
X115526547Y-63401987D01*
X115444606Y-63368046D01*
X115362666Y-63334105D01*
X115362658Y-63334103D01*
X115188696Y-63299500D01*
X115188692Y-63299500D01*
X115188691Y-63299500D01*
X114180771Y-63299500D01*
X114113732Y-63279815D01*
X114111908Y-63278620D01*
X114097598Y-63269059D01*
X114097595Y-63269057D01*
X114097594Y-63269057D01*
X113906420Y-63189870D01*
X113906412Y-63189868D01*
X113703469Y-63149500D01*
X113703465Y-63149500D01*
X113496535Y-63149500D01*
X113496530Y-63149500D01*
X113293587Y-63189868D01*
X113293579Y-63189870D01*
X113102403Y-63269058D01*
X112930342Y-63384024D01*
X112784024Y-63530342D01*
X112669058Y-63702403D01*
X112589870Y-63893579D01*
X112589868Y-63893587D01*
X112549500Y-64096530D01*
X112549500Y-64303469D01*
X112589868Y-64506412D01*
X112589870Y-64506420D01*
X112669058Y-64697596D01*
X112784024Y-64869657D01*
X112930342Y-65015975D01*
X112930345Y-65015977D01*
X113102402Y-65130941D01*
X113293580Y-65210130D01*
X113496530Y-65250499D01*
X113496534Y-65250500D01*
X113496535Y-65250500D01*
X113703466Y-65250500D01*
X113703467Y-65250499D01*
X113906420Y-65210130D01*
X114097598Y-65130941D01*
X114111882Y-65121396D01*
X114178559Y-65100520D01*
X114180771Y-65100500D01*
X114675638Y-65100500D01*
X114742677Y-65120185D01*
X114763319Y-65136819D01*
X116288181Y-66661681D01*
X116321666Y-66723004D01*
X116324500Y-66749362D01*
X116324500Y-68740500D01*
X116304815Y-68807539D01*
X116252011Y-68853294D01*
X116200500Y-68864500D01*
X115938482Y-68864500D01*
X115857519Y-68877323D01*
X115844696Y-68879354D01*
X115731658Y-68936950D01*
X115731657Y-68936951D01*
X115731652Y-68936954D01*
X115641954Y-69026652D01*
X115641951Y-69026657D01*
X115584352Y-69139698D01*
X115569500Y-69233475D01*
X115569500Y-70296517D01*
X115580292Y-70364657D01*
X115584354Y-70390304D01*
X115641950Y-70503342D01*
X115641952Y-70503344D01*
X115641954Y-70503347D01*
X115731652Y-70593045D01*
X115731654Y-70593046D01*
X115731658Y-70593050D01*
X115844694Y-70650645D01*
X115844698Y-70650647D01*
X115938475Y-70665499D01*
X115938481Y-70665500D01*
X116200501Y-70665499D01*
X116267539Y-70685183D01*
X116313294Y-70737987D01*
X116324500Y-70789499D01*
X116324500Y-90165252D01*
X116304815Y-90232291D01*
X116256795Y-90275737D01*
X116249696Y-90279353D01*
X116249696Y-90279354D01*
X116136658Y-90336950D01*
X116136657Y-90336951D01*
X116136652Y-90336954D01*
X116046954Y-90426652D01*
X116046951Y-90426657D01*
X116046950Y-90426658D01*
X116040046Y-90440208D01*
X115989352Y-90539698D01*
X115974500Y-90633475D01*
X115974500Y-92396517D01*
X115985292Y-92464657D01*
X115989354Y-92490304D01*
X116046950Y-92603342D01*
X116046952Y-92603344D01*
X116046954Y-92603347D01*
X116136652Y-92693045D01*
X116136656Y-92693048D01*
X116136658Y-92693050D01*
X116249696Y-92750646D01*
X116249699Y-92750646D01*
X116256795Y-92754262D01*
X116307591Y-92802236D01*
X116324500Y-92864747D01*
X116324500Y-93113696D01*
X116359103Y-93287658D01*
X116359105Y-93287666D01*
X116393046Y-93369606D01*
X116393046Y-93369607D01*
X116426984Y-93451542D01*
X116426985Y-93451544D01*
X116486063Y-93539960D01*
X116525537Y-93599038D01*
X116525540Y-93599041D01*
X118100536Y-95174035D01*
X118169818Y-95243317D01*
X118225966Y-95299465D01*
X118373446Y-95398009D01*
X118373453Y-95398013D01*
X118513578Y-95456054D01*
X118537334Y-95465894D01*
X118537338Y-95465894D01*
X118537339Y-95465895D01*
X118711305Y-95500500D01*
X118711308Y-95500500D01*
X120988693Y-95500500D01*
X120988694Y-95500499D01*
X121162666Y-95465895D01*
X121244606Y-95431953D01*
X121326547Y-95398013D01*
X121414959Y-95338936D01*
X121474036Y-95299464D01*
X125636680Y-91136818D01*
X125698003Y-91103334D01*
X125724361Y-91100500D01*
X126228261Y-91100500D01*
X126295300Y-91120185D01*
X126341055Y-91172989D01*
X126350999Y-91242147D01*
X126321974Y-91305703D01*
X126269216Y-91341541D01*
X126141588Y-91386200D01*
X125888557Y-91508053D01*
X125650753Y-91657476D01*
X125431175Y-91832583D01*
X125232583Y-92031175D01*
X125057476Y-92250753D01*
X124908053Y-92488557D01*
X124786200Y-92741588D01*
X124693443Y-93006670D01*
X124693439Y-93006682D01*
X124630945Y-93280487D01*
X124630942Y-93280505D01*
X124599500Y-93559568D01*
X124599500Y-93840431D01*
X124630942Y-94119494D01*
X124630945Y-94119512D01*
X124693439Y-94393317D01*
X124693443Y-94393329D01*
X124786200Y-94658411D01*
X124908053Y-94911442D01*
X124908055Y-94911445D01*
X125057477Y-95149248D01*
X125132504Y-95243329D01*
X125206270Y-95335829D01*
X125232584Y-95368825D01*
X125431175Y-95567416D01*
X125650752Y-95742523D01*
X125807084Y-95840753D01*
X125888560Y-95891948D01*
X126037721Y-95963780D01*
X126089581Y-96010602D01*
X126107894Y-96078029D01*
X126086846Y-96144653D01*
X126033120Y-96189322D01*
X125983920Y-96199500D01*
X110540316Y-96199500D01*
X110473277Y-96179815D01*
X110427522Y-96127011D01*
X110417578Y-96057853D01*
X110441410Y-96002718D01*
X110440513Y-96002081D01*
X110442521Y-95999250D01*
X110442523Y-95999248D01*
X110591945Y-95761445D01*
X110713801Y-95508408D01*
X110806560Y-95243318D01*
X110869055Y-94969509D01*
X110871673Y-94946280D01*
X110884429Y-94833055D01*
X110900500Y-94690425D01*
X110900500Y-94409575D01*
X110882061Y-94245924D01*
X110869057Y-94130505D01*
X110869054Y-94130487D01*
X110858511Y-94084297D01*
X110806560Y-93856682D01*
X110800871Y-93840425D01*
X110783465Y-93790680D01*
X110713801Y-93591592D01*
X110591945Y-93338555D01*
X110442523Y-93100752D01*
X110267416Y-92881175D01*
X110068825Y-92682584D01*
X110053105Y-92670048D01*
X109969459Y-92603342D01*
X109849248Y-92507477D01*
X109611445Y-92358055D01*
X109611442Y-92358053D01*
X109358411Y-92236200D01*
X109093329Y-92143443D01*
X109093317Y-92143439D01*
X108819512Y-92080945D01*
X108819494Y-92080942D01*
X108540431Y-92049500D01*
X108540425Y-92049500D01*
X108259575Y-92049500D01*
X108259568Y-92049500D01*
X107980505Y-92080942D01*
X107980487Y-92080945D01*
X107706682Y-92143439D01*
X107706670Y-92143443D01*
X107441588Y-92236200D01*
X107188557Y-92358053D01*
X106950753Y-92507476D01*
X106731175Y-92682583D01*
X106532583Y-92881175D01*
X106357476Y-93100753D01*
X106208053Y-93338557D01*
X106086200Y-93591588D01*
X105993443Y-93856670D01*
X105993439Y-93856682D01*
X105930945Y-94130487D01*
X105930942Y-94130505D01*
X105899500Y-94409568D01*
X105899500Y-94690431D01*
X105930942Y-94969494D01*
X105930945Y-94969512D01*
X105993439Y-95243317D01*
X105993443Y-95243329D01*
X106086200Y-95508411D01*
X106208053Y-95761442D01*
X106357478Y-95999250D01*
X106359487Y-96002081D01*
X106358504Y-96002777D01*
X106383040Y-96062874D01*
X106370283Y-96131570D01*
X106322412Y-96182463D01*
X106259684Y-96199500D01*
X70216080Y-96199500D01*
X70149041Y-96179815D01*
X70103286Y-96127011D01*
X70093342Y-96057853D01*
X70122367Y-95994297D01*
X70162279Y-95963780D01*
X70311439Y-95891948D01*
X70311439Y-95891947D01*
X70311445Y-95891945D01*
X70549248Y-95742523D01*
X70768825Y-95567416D01*
X70967416Y-95368825D01*
X71142523Y-95149248D01*
X71291945Y-94911445D01*
X71413801Y-94658408D01*
X71506560Y-94393318D01*
X71569055Y-94119509D01*
X71572547Y-94088522D01*
X71598668Y-93856682D01*
X71600500Y-93840425D01*
X71600500Y-93559575D01*
X71578372Y-93363181D01*
X71569057Y-93280505D01*
X71569054Y-93280487D01*
X71506560Y-93006682D01*
X71506556Y-93006670D01*
X71462643Y-92881175D01*
X71413801Y-92741592D01*
X71291945Y-92488555D01*
X71142523Y-92250752D01*
X70967416Y-92031175D01*
X70768825Y-91832584D01*
X70767143Y-91831243D01*
X70670333Y-91754039D01*
X70549248Y-91657477D01*
X70311445Y-91508055D01*
X70311442Y-91508053D01*
X70058411Y-91386200D01*
X69793329Y-91293443D01*
X69793317Y-91293439D01*
X69519512Y-91230945D01*
X69519494Y-91230942D01*
X69240431Y-91199500D01*
X69240425Y-91199500D01*
X68959575Y-91199500D01*
X68959568Y-91199500D01*
X68680505Y-91230942D01*
X68680487Y-91230945D01*
X68406682Y-91293439D01*
X68406670Y-91293443D01*
X68141588Y-91386200D01*
X67888557Y-91508053D01*
X67650753Y-91657476D01*
X67431175Y-91832583D01*
X67232583Y-92031175D01*
X67057476Y-92250753D01*
X66908053Y-92488557D01*
X66786200Y-92741588D01*
X66741541Y-92869216D01*
X66700819Y-92925992D01*
X66635867Y-92951739D01*
X66567305Y-92938283D01*
X66516902Y-92889895D01*
X66500500Y-92828261D01*
X66500500Y-45571738D01*
X66520185Y-45504699D01*
X66572989Y-45458944D01*
X66642147Y-45449000D01*
X66705703Y-45478025D01*
X66741541Y-45530783D01*
X66786200Y-45658411D01*
X66908053Y-45911442D01*
X66908055Y-45911445D01*
X67057477Y-46149248D01*
X67232584Y-46368825D01*
X67431175Y-46567416D01*
X67650752Y-46742523D01*
X67888555Y-46891945D01*
X68141592Y-47013801D01*
X68340680Y-47083465D01*
X68406670Y-47106556D01*
X68406682Y-47106560D01*
X68680491Y-47169055D01*
X68680497Y-47169055D01*
X68680505Y-47169057D01*
X68866547Y-47190018D01*
X68959569Y-47200499D01*
X68959572Y-47200500D01*
X68959575Y-47200500D01*
X69240428Y-47200500D01*
X69240429Y-47200499D01*
X69383055Y-47184429D01*
X69519494Y-47169057D01*
X69519499Y-47169056D01*
X69519509Y-47169055D01*
X69793318Y-47106560D01*
X70058408Y-47013801D01*
X70311445Y-46891945D01*
X70549248Y-46742523D01*
X70768825Y-46567416D01*
X70887819Y-46448422D01*
X70949142Y-46414937D01*
X71018834Y-46419921D01*
X71074767Y-46461793D01*
X71099184Y-46527257D01*
X71099500Y-46536103D01*
X71099500Y-63020305D01*
X71079815Y-63087344D01*
X71049812Y-63119571D01*
X70952452Y-63192455D01*
X70866206Y-63307664D01*
X70866202Y-63307671D01*
X70815908Y-63442517D01*
X70809501Y-63502116D01*
X70809500Y-63502135D01*
X70809500Y-69024217D01*
X70789815Y-69091256D01*
X70773181Y-69111898D01*
X70451311Y-69433769D01*
X70162219Y-69722861D01*
X67962221Y-71922858D01*
X67962218Y-71922861D01*
X67892538Y-71992540D01*
X67822859Y-72062219D01*
X67713371Y-72226079D01*
X67713364Y-72226092D01*
X67637950Y-72408160D01*
X67637947Y-72408170D01*
X67599500Y-72601456D01*
X67599500Y-72601459D01*
X67599500Y-75101459D01*
X67599500Y-77698541D01*
X67599500Y-77698543D01*
X67599499Y-77698543D01*
X67637947Y-77891829D01*
X67637950Y-77891839D01*
X67713364Y-78073907D01*
X67713371Y-78073920D01*
X67822859Y-78237780D01*
X67822860Y-78237781D01*
X67822861Y-78237782D01*
X67962218Y-78377139D01*
X67962219Y-78377139D01*
X67969286Y-78384206D01*
X67969285Y-78384206D01*
X67969289Y-78384209D01*
X73166538Y-83581460D01*
X73166560Y-83581480D01*
X76363181Y-86778101D01*
X76396666Y-86839424D01*
X76399500Y-86865782D01*
X76399500Y-87598541D01*
X76399500Y-87598543D01*
X76399499Y-87598543D01*
X76437947Y-87791829D01*
X76437950Y-87791839D01*
X76513364Y-87973907D01*
X76513371Y-87973920D01*
X76608602Y-88116442D01*
X76629480Y-88183119D01*
X76629500Y-88185333D01*
X76629500Y-88515395D01*
X76611617Y-88579544D01*
X76555710Y-88672026D01*
X76505822Y-88832123D01*
X76499500Y-88901701D01*
X76499500Y-89833308D01*
X76505821Y-89902875D01*
X76505823Y-89902883D01*
X76555708Y-90062970D01*
X76555709Y-90062972D01*
X76642454Y-90206467D01*
X76642457Y-90206471D01*
X76761028Y-90325042D01*
X76761032Y-90325045D01*
X76823019Y-90362517D01*
X76904529Y-90411791D01*
X77064620Y-90461677D01*
X77134199Y-90468000D01*
X77625800Y-90467999D01*
X77625808Y-90467999D01*
X77695376Y-90461678D01*
X77695383Y-90461676D01*
X77855471Y-90411791D01*
X77855472Y-90411790D01*
X77862302Y-90409662D01*
X77932162Y-90408510D01*
X77938556Y-90410816D01*
X77938568Y-90410781D01*
X78018329Y-90435635D01*
X78102343Y-90461815D01*
X78170406Y-90468000D01*
X78170409Y-90468000D01*
X78629591Y-90468000D01*
X78629594Y-90468000D01*
X78697657Y-90461815D01*
X78781671Y-90435635D01*
X78861432Y-90410781D01*
X78862286Y-90413521D01*
X78918273Y-90405764D01*
X78938299Y-90411643D01*
X78938568Y-90410781D01*
X79018329Y-90435635D01*
X79102343Y-90461815D01*
X79170406Y-90468000D01*
X79170409Y-90468000D01*
X79629591Y-90468000D01*
X79629594Y-90468000D01*
X79697657Y-90461815D01*
X79781671Y-90435635D01*
X79861432Y-90410781D01*
X79862209Y-90413277D01*
X79919104Y-90405404D01*
X79937697Y-90409662D01*
X79944528Y-90411790D01*
X79944529Y-90411791D01*
X80104620Y-90461677D01*
X80174199Y-90468000D01*
X80665800Y-90467999D01*
X80665808Y-90467999D01*
X80735376Y-90461678D01*
X80735383Y-90461676D01*
X80895471Y-90411791D01*
X81038972Y-90325042D01*
X81157542Y-90206472D01*
X81244291Y-90062971D01*
X81294177Y-89902880D01*
X81300500Y-89833301D01*
X81300499Y-88901700D01*
X81300499Y-88901699D01*
X81300499Y-88901691D01*
X81294178Y-88832124D01*
X81294176Y-88832116D01*
X81244291Y-88672029D01*
X81244290Y-88672027D01*
X81188383Y-88579544D01*
X81170500Y-88515395D01*
X81170500Y-88246079D01*
X81141659Y-88101092D01*
X81141658Y-88101091D01*
X81141658Y-88101087D01*
X81088981Y-87973914D01*
X81085085Y-87964507D01*
X81025610Y-87875496D01*
X81025610Y-87875495D01*
X81021090Y-87868730D01*
X81002952Y-87841584D01*
X78978416Y-85817048D01*
X78978413Y-85817045D01*
X78929179Y-85784150D01*
X78896355Y-85762218D01*
X78855495Y-85734916D01*
X78855494Y-85734915D01*
X78855492Y-85734914D01*
X78855490Y-85734913D01*
X78718917Y-85678343D01*
X78718907Y-85678340D01*
X78573920Y-85649500D01*
X78573918Y-85649500D01*
X78115782Y-85649500D01*
X78048743Y-85629815D01*
X78028101Y-85613181D01*
X74581480Y-82166560D01*
X74581460Y-82166538D01*
X69636819Y-77221897D01*
X69603334Y-77160574D01*
X69600500Y-77134216D01*
X69600500Y-74109568D01*
X70363091Y-74109568D01*
X70363091Y-74390431D01*
X70394533Y-74669494D01*
X70394536Y-74669512D01*
X70457030Y-74943317D01*
X70457034Y-74943329D01*
X70549791Y-75208411D01*
X70671644Y-75461442D01*
X70671646Y-75461445D01*
X70821068Y-75699248D01*
X70996175Y-75918825D01*
X71194766Y-76117416D01*
X71414343Y-76292523D01*
X71652146Y-76441945D01*
X71905183Y-76563801D01*
X72104271Y-76633465D01*
X72170261Y-76656556D01*
X72170273Y-76656560D01*
X72444082Y-76719055D01*
X72444088Y-76719055D01*
X72444096Y-76719057D01*
X72630138Y-76740018D01*
X72723160Y-76750499D01*
X72723163Y-76750500D01*
X72723166Y-76750500D01*
X73004019Y-76750500D01*
X73004020Y-76750499D01*
X73146646Y-76734429D01*
X73283085Y-76719057D01*
X73283090Y-76719056D01*
X73283100Y-76719055D01*
X73556909Y-76656560D01*
X73821999Y-76563801D01*
X74075036Y-76441945D01*
X74312839Y-76292523D01*
X74532416Y-76117416D01*
X74731007Y-75918825D01*
X74906114Y-75699248D01*
X75055536Y-75461445D01*
X75177392Y-75208408D01*
X75270151Y-74943318D01*
X75332646Y-74669509D01*
X75335264Y-74646280D01*
X75348020Y-74533055D01*
X75364091Y-74390425D01*
X75364091Y-74109575D01*
X75345652Y-73945924D01*
X75332648Y-73830505D01*
X75332645Y-73830487D01*
X75322102Y-73784297D01*
X75270151Y-73556682D01*
X75177392Y-73291592D01*
X75055536Y-73038555D01*
X74906114Y-72800752D01*
X74731007Y-72581175D01*
X74532416Y-72382584D01*
X74312839Y-72207477D01*
X74081663Y-72062219D01*
X74075033Y-72058053D01*
X73822002Y-71936200D01*
X73556920Y-71843443D01*
X73556908Y-71843439D01*
X73283103Y-71780945D01*
X73283085Y-71780942D01*
X73004022Y-71749500D01*
X73004016Y-71749500D01*
X72723166Y-71749500D01*
X72723159Y-71749500D01*
X72444096Y-71780942D01*
X72444078Y-71780945D01*
X72170273Y-71843439D01*
X72170261Y-71843443D01*
X71905179Y-71936200D01*
X71652148Y-72058053D01*
X71414344Y-72207476D01*
X71194766Y-72382583D01*
X70996174Y-72581175D01*
X70821067Y-72800753D01*
X70671644Y-73038557D01*
X70549791Y-73291588D01*
X70457034Y-73556670D01*
X70457030Y-73556682D01*
X70394536Y-73830487D01*
X70394533Y-73830505D01*
X70363091Y-74109568D01*
X69600500Y-74109568D01*
X69600500Y-73165782D01*
X69620185Y-73098743D01*
X69636819Y-73078101D01*
X71635698Y-71079222D01*
X71635709Y-71079209D01*
X72587140Y-70127781D01*
X72696632Y-69963914D01*
X72772052Y-69781835D01*
X72810500Y-69588540D01*
X72810500Y-69391460D01*
X72810500Y-65270783D01*
X72830185Y-65203744D01*
X72846815Y-65183105D01*
X72877139Y-65152782D01*
X72986632Y-64988914D01*
X73062051Y-64806835D01*
X73068576Y-64774035D01*
X73100500Y-64613540D01*
X73100500Y-64416460D01*
X73100500Y-48174499D01*
X73120185Y-48107460D01*
X73172989Y-48061705D01*
X73224500Y-48050499D01*
X74757871Y-48050499D01*
X74757872Y-48050499D01*
X74817483Y-48044091D01*
X74952331Y-47993796D01*
X75067546Y-47907546D01*
X75153796Y-47792331D01*
X75202810Y-47660916D01*
X75244681Y-47604984D01*
X75310145Y-47580566D01*
X75378418Y-47595417D01*
X75406673Y-47616569D01*
X75520213Y-47730109D01*
X75692179Y-47855048D01*
X75692181Y-47855049D01*
X75692184Y-47855051D01*
X75881588Y-47951557D01*
X76083757Y-48017246D01*
X76293713Y-48050500D01*
X76293714Y-48050500D01*
X76506286Y-48050500D01*
X76506287Y-48050500D01*
X76716243Y-48017246D01*
X76918412Y-47951557D01*
X77107816Y-47855051D01*
X77194138Y-47792335D01*
X77279786Y-47730109D01*
X77279788Y-47730106D01*
X77279792Y-47730104D01*
X77430104Y-47579792D01*
X77430106Y-47579788D01*
X77430109Y-47579786D01*
X77555048Y-47407820D01*
X77555049Y-47407819D01*
X77555051Y-47407816D01*
X77559514Y-47399054D01*
X77607488Y-47348259D01*
X77675308Y-47331463D01*
X77741444Y-47353999D01*
X77780486Y-47399056D01*
X77784951Y-47407820D01*
X77909890Y-47579786D01*
X78060213Y-47730109D01*
X78232179Y-47855048D01*
X78232181Y-47855049D01*
X78232184Y-47855051D01*
X78421588Y-47951557D01*
X78623757Y-48017246D01*
X78833713Y-48050500D01*
X78833714Y-48050500D01*
X79046286Y-48050500D01*
X79046287Y-48050500D01*
X79256243Y-48017246D01*
X79458412Y-47951557D01*
X79647816Y-47855051D01*
X79734138Y-47792335D01*
X79819786Y-47730109D01*
X79819788Y-47730106D01*
X79819792Y-47730104D01*
X79970104Y-47579792D01*
X79970106Y-47579788D01*
X79970109Y-47579786D01*
X80095048Y-47407820D01*
X80095049Y-47407819D01*
X80095051Y-47407816D01*
X80099514Y-47399054D01*
X80147488Y-47348259D01*
X80215308Y-47331463D01*
X80281444Y-47353999D01*
X80320486Y-47399056D01*
X80324951Y-47407820D01*
X80449890Y-47579786D01*
X80600213Y-47730109D01*
X80772179Y-47855048D01*
X80772181Y-47855049D01*
X80772184Y-47855051D01*
X80961588Y-47951557D01*
X81163757Y-48017246D01*
X81373713Y-48050500D01*
X81373714Y-48050500D01*
X81586286Y-48050500D01*
X81586287Y-48050500D01*
X81796243Y-48017246D01*
X81998412Y-47951557D01*
X82187816Y-47855051D01*
X82274138Y-47792335D01*
X82359786Y-47730109D01*
X82359788Y-47730106D01*
X82359792Y-47730104D01*
X82510104Y-47579792D01*
X82510106Y-47579788D01*
X82510109Y-47579786D01*
X82635048Y-47407820D01*
X82635049Y-47407819D01*
X82635051Y-47407816D01*
X82731557Y-47218412D01*
X82797246Y-47016243D01*
X82830500Y-46806287D01*
X82830500Y-46593713D01*
X82797246Y-46383757D01*
X82731557Y-46181588D01*
X82635051Y-45992184D01*
X82635049Y-45992181D01*
X82635048Y-45992179D01*
X82510109Y-45820213D01*
X82359786Y-45669890D01*
X82187820Y-45544951D01*
X82187115Y-45544591D01*
X82179054Y-45540485D01*
X82128259Y-45492512D01*
X82111463Y-45424692D01*
X82133999Y-45358556D01*
X82179054Y-45319515D01*
X82187816Y-45315051D01*
X82308256Y-45227547D01*
X82359786Y-45190109D01*
X82359788Y-45190106D01*
X82359792Y-45190104D01*
X82510104Y-45039792D01*
X82510106Y-45039788D01*
X82510109Y-45039786D01*
X82635048Y-44867820D01*
X82635047Y-44867820D01*
X82635051Y-44867816D01*
X82639514Y-44859054D01*
X82687488Y-44808259D01*
X82755308Y-44791463D01*
X82821444Y-44813999D01*
X82860486Y-44859056D01*
X82864951Y-44867820D01*
X82989890Y-45039786D01*
X83140213Y-45190109D01*
X83312179Y-45315048D01*
X83312181Y-45315049D01*
X83312184Y-45315051D01*
X83501588Y-45411557D01*
X83703757Y-45477246D01*
X83913713Y-45510500D01*
X83913714Y-45510500D01*
X84126286Y-45510500D01*
X84126287Y-45510500D01*
X84336243Y-45477246D01*
X84538412Y-45411557D01*
X84727816Y-45315051D01*
X84848256Y-45227547D01*
X84899786Y-45190109D01*
X84899788Y-45190106D01*
X84899792Y-45190104D01*
X85050104Y-45039792D01*
X85050106Y-45039788D01*
X85050109Y-45039786D01*
X85175048Y-44867820D01*
X85175047Y-44867820D01*
X85175051Y-44867816D01*
X85179514Y-44859054D01*
X85188160Y-44849900D01*
X85192897Y-44838232D01*
X85211696Y-44824979D01*
X85227488Y-44808259D01*
X85239710Y-44805231D01*
X85250004Y-44797976D01*
X85272985Y-44796991D01*
X85295308Y-44791463D01*
X85307226Y-44795524D01*
G37*
%TD.AperFunction*%
%TA.AperFunction,Conductor*%
G36*
X152804853Y-34700881D02*
G01*
X152977919Y-34714502D01*
X152997128Y-34717545D01*
X153161183Y-34756931D01*
X153179675Y-34762940D01*
X153305347Y-34814994D01*
X153335547Y-34827504D01*
X153352884Y-34836338D01*
X153496725Y-34924484D01*
X153512466Y-34935920D01*
X153640753Y-35045486D01*
X153654513Y-35059246D01*
X153764079Y-35187533D01*
X153775515Y-35203274D01*
X153863661Y-35347115D01*
X153872495Y-35364452D01*
X153937057Y-35520317D01*
X153943070Y-35538823D01*
X153982453Y-35702866D01*
X153985497Y-35722084D01*
X153999118Y-35895146D01*
X153999500Y-35904875D01*
X153999500Y-48985217D01*
X153979815Y-49052256D01*
X153927011Y-49098011D01*
X153857853Y-49107955D01*
X153794297Y-49078930D01*
X153787819Y-49072898D01*
X151304209Y-46589289D01*
X151304206Y-46589285D01*
X151304206Y-46589286D01*
X151297139Y-46582219D01*
X151297139Y-46582218D01*
X151157782Y-46442861D01*
X151157781Y-46442860D01*
X151157780Y-46442859D01*
X150993920Y-46333371D01*
X150993911Y-46333366D01*
X150872096Y-46282909D01*
X150865165Y-46280038D01*
X150811836Y-46257949D01*
X150713964Y-46238481D01*
X150704598Y-46236618D01*
X150618543Y-46219500D01*
X150618541Y-46219500D01*
X149741440Y-46219500D01*
X149674401Y-46199815D01*
X149628646Y-46147011D01*
X149625258Y-46138833D01*
X149583797Y-46027671D01*
X149583793Y-46027664D01*
X149497547Y-45912455D01*
X149497544Y-45912452D01*
X149382335Y-45826206D01*
X149382328Y-45826202D01*
X149247482Y-45775908D01*
X149247483Y-45775908D01*
X149187883Y-45769501D01*
X149187881Y-45769500D01*
X149187873Y-45769500D01*
X149187864Y-45769500D01*
X148092129Y-45769500D01*
X148092123Y-45769501D01*
X148032516Y-45775908D01*
X147897671Y-45826202D01*
X147897664Y-45826206D01*
X147782455Y-45912452D01*
X147782452Y-45912455D01*
X147696206Y-46027664D01*
X147696202Y-46027671D01*
X147645908Y-46162517D01*
X147639501Y-46222116D01*
X147639500Y-46222135D01*
X147639500Y-48217870D01*
X147639501Y-48217876D01*
X147645908Y-48277483D01*
X147696202Y-48412328D01*
X147696206Y-48412335D01*
X147782452Y-48527544D01*
X147782455Y-48527547D01*
X147897664Y-48613793D01*
X147897671Y-48613797D01*
X148032517Y-48664091D01*
X148032516Y-48664091D01*
X148039444Y-48664835D01*
X148092127Y-48670500D01*
X149187872Y-48670499D01*
X149247483Y-48664091D01*
X149382331Y-48613796D01*
X149497546Y-48527546D01*
X149583796Y-48412331D01*
X149596399Y-48378541D01*
X149625258Y-48301167D01*
X149667129Y-48245233D01*
X149732593Y-48220816D01*
X149741440Y-48220500D01*
X150054218Y-48220500D01*
X150121257Y-48240185D01*
X150141899Y-48256819D01*
X152263181Y-50378101D01*
X152296666Y-50439424D01*
X152299500Y-50465782D01*
X152299500Y-53306715D01*
X152279815Y-53373754D01*
X152227011Y-53419509D01*
X152157853Y-53429453D01*
X152094297Y-53400428D01*
X152070604Y-53370759D01*
X152070017Y-53371152D01*
X151957140Y-53202219D01*
X151937139Y-53182218D01*
X151817782Y-53062861D01*
X151817781Y-53062860D01*
X150024208Y-51269288D01*
X150024206Y-51269285D01*
X150024206Y-51269286D01*
X150017139Y-51262219D01*
X150017139Y-51262218D01*
X149877782Y-51122861D01*
X149877781Y-51122860D01*
X149877780Y-51122859D01*
X149713920Y-51013371D01*
X149713911Y-51013366D01*
X149639590Y-50982581D01*
X149585165Y-50960038D01*
X149531836Y-50937949D01*
X149382097Y-50908164D01*
X149378551Y-50907458D01*
X149378541Y-50907456D01*
X149338542Y-50899500D01*
X149338541Y-50899500D01*
X122165783Y-50899500D01*
X122098744Y-50879815D01*
X122078102Y-50863181D01*
X120636819Y-49421898D01*
X120603334Y-49360575D01*
X120600500Y-49334217D01*
X120600500Y-48796530D01*
X125449500Y-48796530D01*
X125449500Y-49003469D01*
X125489868Y-49206412D01*
X125489870Y-49206420D01*
X125569058Y-49397596D01*
X125684024Y-49569657D01*
X125830342Y-49715975D01*
X125830345Y-49715977D01*
X126002402Y-49830941D01*
X126193580Y-49910130D01*
X126396530Y-49950499D01*
X126396534Y-49950500D01*
X126396535Y-49950500D01*
X126603466Y-49950500D01*
X126603467Y-49950499D01*
X126806420Y-49910130D01*
X126997598Y-49830941D01*
X127011882Y-49821396D01*
X127078559Y-49800520D01*
X127080771Y-49800500D01*
X131808693Y-49800500D01*
X131808694Y-49800499D01*
X131982666Y-49765895D01*
X132064606Y-49731953D01*
X132146547Y-49698013D01*
X132236690Y-49637781D01*
X132294036Y-49599464D01*
X133286680Y-48606817D01*
X133348003Y-48573333D01*
X133374361Y-48570499D01*
X133931517Y-48570499D01*
X133931518Y-48570499D01*
X134025304Y-48555646D01*
X134138342Y-48498050D01*
X134228050Y-48408342D01*
X134285646Y-48295304D01*
X134285646Y-48295302D01*
X134285647Y-48295301D01*
X134300500Y-48201524D01*
X134300500Y-47121319D01*
X134300499Y-47121305D01*
X134300499Y-46238481D01*
X134294375Y-46199815D01*
X134285646Y-46144696D01*
X134228050Y-46031658D01*
X134228046Y-46031654D01*
X134228045Y-46031652D01*
X134138347Y-45941954D01*
X134138344Y-45941952D01*
X134138342Y-45941950D01*
X134061517Y-45902805D01*
X134025301Y-45884352D01*
X133931524Y-45869500D01*
X132868482Y-45869500D01*
X132787519Y-45882323D01*
X132774696Y-45884354D01*
X132661658Y-45941950D01*
X132661657Y-45941951D01*
X132661652Y-45941954D01*
X132571954Y-46031652D01*
X132571951Y-46031657D01*
X132571950Y-46031658D01*
X132553160Y-46068536D01*
X132514352Y-46144698D01*
X132499500Y-46238475D01*
X132499500Y-46795638D01*
X132479815Y-46862677D01*
X132463181Y-46883319D01*
X131383319Y-47963181D01*
X131321996Y-47996666D01*
X131295638Y-47999500D01*
X127080771Y-47999500D01*
X127013732Y-47979815D01*
X127011908Y-47978620D01*
X126997598Y-47969059D01*
X126997595Y-47969057D01*
X126997594Y-47969057D01*
X126806420Y-47889870D01*
X126806412Y-47889868D01*
X126603469Y-47849500D01*
X126603465Y-47849500D01*
X126396535Y-47849500D01*
X126396530Y-47849500D01*
X126193587Y-47889868D01*
X126193579Y-47889870D01*
X126002403Y-47969058D01*
X125830342Y-48084024D01*
X125684024Y-48230342D01*
X125569058Y-48402403D01*
X125489870Y-48593579D01*
X125489868Y-48593587D01*
X125449500Y-48796530D01*
X120600500Y-48796530D01*
X120600500Y-47633301D01*
X120620185Y-47566262D01*
X120624182Y-47560416D01*
X120671500Y-47495286D01*
X120735051Y-47407816D01*
X120831557Y-47218412D01*
X120897246Y-47016243D01*
X120930500Y-46806287D01*
X120930500Y-46593713D01*
X120897246Y-46383757D01*
X120831557Y-46181588D01*
X120735051Y-45992184D01*
X120735049Y-45992181D01*
X120735048Y-45992179D01*
X120610109Y-45820213D01*
X120459786Y-45669890D01*
X120287820Y-45544951D01*
X120287115Y-45544591D01*
X120279054Y-45540485D01*
X120228259Y-45492512D01*
X120211463Y-45424692D01*
X120233999Y-45358556D01*
X120279054Y-45319515D01*
X120287816Y-45315051D01*
X120408256Y-45227547D01*
X120459786Y-45190109D01*
X120459788Y-45190106D01*
X120459792Y-45190104D01*
X120610104Y-45039792D01*
X120610106Y-45039788D01*
X120610109Y-45039786D01*
X120735048Y-44867820D01*
X120735047Y-44867820D01*
X120735051Y-44867816D01*
X120739514Y-44859054D01*
X120787488Y-44808259D01*
X120855308Y-44791463D01*
X120921444Y-44813999D01*
X120960486Y-44859056D01*
X120964951Y-44867820D01*
X121089890Y-45039786D01*
X121240213Y-45190109D01*
X121412179Y-45315048D01*
X121412181Y-45315049D01*
X121412184Y-45315051D01*
X121601588Y-45411557D01*
X121803757Y-45477246D01*
X122013713Y-45510500D01*
X122013714Y-45510500D01*
X122226286Y-45510500D01*
X122226287Y-45510500D01*
X122436243Y-45477246D01*
X122638412Y-45411557D01*
X122827816Y-45315051D01*
X122948256Y-45227547D01*
X122999786Y-45190109D01*
X122999788Y-45190106D01*
X122999792Y-45190104D01*
X123150104Y-45039792D01*
X123150106Y-45039788D01*
X123150109Y-45039786D01*
X123275048Y-44867820D01*
X123275047Y-44867820D01*
X123275051Y-44867816D01*
X123371557Y-44678412D01*
X123410172Y-44559568D01*
X124599500Y-44559568D01*
X124599500Y-44840431D01*
X124630942Y-45119494D01*
X124630945Y-45119512D01*
X124693439Y-45393317D01*
X124693443Y-45393329D01*
X124786200Y-45658411D01*
X124908053Y-45911442D01*
X124908055Y-45911445D01*
X125057477Y-46149248D01*
X125232584Y-46368825D01*
X125431175Y-46567416D01*
X125650752Y-46742523D01*
X125888555Y-46891945D01*
X126141592Y-47013801D01*
X126340680Y-47083465D01*
X126406670Y-47106556D01*
X126406682Y-47106560D01*
X126680491Y-47169055D01*
X126680497Y-47169055D01*
X126680505Y-47169057D01*
X126866547Y-47190018D01*
X126959569Y-47200499D01*
X126959572Y-47200500D01*
X126959575Y-47200500D01*
X127240428Y-47200500D01*
X127240429Y-47200499D01*
X127383055Y-47184429D01*
X127519494Y-47169057D01*
X127519499Y-47169056D01*
X127519509Y-47169055D01*
X127793318Y-47106560D01*
X128058408Y-47013801D01*
X128311445Y-46891945D01*
X128549248Y-46742523D01*
X128768825Y-46567416D01*
X128967416Y-46368825D01*
X129142523Y-46149248D01*
X129291945Y-45911445D01*
X129413801Y-45658408D01*
X129506560Y-45393318D01*
X129569055Y-45119509D01*
X129569864Y-45112335D01*
X129585057Y-44977482D01*
X129600500Y-44840425D01*
X129600500Y-44559575D01*
X129569055Y-44280491D01*
X129506560Y-44006682D01*
X129413801Y-43741592D01*
X129291945Y-43488555D01*
X129142523Y-43250752D01*
X128967416Y-43031175D01*
X128768825Y-42832584D01*
X128549248Y-42657477D01*
X128311445Y-42508055D01*
X128311442Y-42508053D01*
X128058411Y-42386200D01*
X127793329Y-42293443D01*
X127793317Y-42293439D01*
X127519512Y-42230945D01*
X127519494Y-42230942D01*
X127240431Y-42199500D01*
X127240425Y-42199500D01*
X126959575Y-42199500D01*
X126959568Y-42199500D01*
X126680505Y-42230942D01*
X126680487Y-42230945D01*
X126406682Y-42293439D01*
X126406670Y-42293443D01*
X126141588Y-42386200D01*
X125888557Y-42508053D01*
X125650753Y-42657476D01*
X125431175Y-42832583D01*
X125232583Y-43031175D01*
X125057476Y-43250753D01*
X124908053Y-43488557D01*
X124786200Y-43741588D01*
X124693443Y-44006670D01*
X124693439Y-44006682D01*
X124630945Y-44280487D01*
X124630942Y-44280505D01*
X124599500Y-44559568D01*
X123410172Y-44559568D01*
X123437246Y-44476243D01*
X123470500Y-44266287D01*
X123470500Y-44053713D01*
X123437246Y-43843757D01*
X123371557Y-43641588D01*
X123275051Y-43452184D01*
X123275049Y-43452181D01*
X123275048Y-43452179D01*
X123150109Y-43280213D01*
X122999786Y-43129890D01*
X122827820Y-43004951D01*
X122638414Y-42908444D01*
X122638413Y-42908443D01*
X122638412Y-42908443D01*
X122436243Y-42842754D01*
X122436241Y-42842753D01*
X122436240Y-42842753D01*
X122274957Y-42817208D01*
X122226287Y-42809500D01*
X122013713Y-42809500D01*
X121965042Y-42817208D01*
X121803760Y-42842753D01*
X121601585Y-42908444D01*
X121412179Y-43004951D01*
X121240213Y-43129890D01*
X121089890Y-43280213D01*
X120964949Y-43452182D01*
X120960484Y-43460946D01*
X120912509Y-43511742D01*
X120844688Y-43528536D01*
X120778553Y-43505998D01*
X120739516Y-43460946D01*
X120735050Y-43452182D01*
X120610109Y-43280213D01*
X120459786Y-43129890D01*
X120287820Y-43004951D01*
X120098414Y-42908444D01*
X120098413Y-42908443D01*
X120098412Y-42908443D01*
X119896243Y-42842754D01*
X119896241Y-42842753D01*
X119896240Y-42842753D01*
X119734957Y-42817208D01*
X119686287Y-42809500D01*
X119473713Y-42809500D01*
X119425042Y-42817208D01*
X119263760Y-42842753D01*
X119061585Y-42908444D01*
X118872179Y-43004951D01*
X118700213Y-43129890D01*
X118549890Y-43280213D01*
X118424949Y-43452182D01*
X118420484Y-43460946D01*
X118372509Y-43511742D01*
X118304688Y-43528536D01*
X118238553Y-43505998D01*
X118199516Y-43460946D01*
X118195050Y-43452182D01*
X118070109Y-43280213D01*
X117919786Y-43129890D01*
X117747820Y-43004951D01*
X117558414Y-42908444D01*
X117558413Y-42908443D01*
X117558412Y-42908443D01*
X117356243Y-42842754D01*
X117356241Y-42842753D01*
X117356240Y-42842753D01*
X117194957Y-42817208D01*
X117146287Y-42809500D01*
X116933713Y-42809500D01*
X116885042Y-42817208D01*
X116723760Y-42842753D01*
X116521585Y-42908444D01*
X116332179Y-43004951D01*
X116160213Y-43129890D01*
X116009890Y-43280213D01*
X115884951Y-43452179D01*
X115788444Y-43641585D01*
X115722753Y-43843760D01*
X115696951Y-44006670D01*
X115689500Y-44053713D01*
X115689500Y-44266287D01*
X115722754Y-44476243D01*
X115749830Y-44559575D01*
X115788444Y-44678414D01*
X115884951Y-44867820D01*
X116009890Y-45039786D01*
X116160213Y-45190109D01*
X116332182Y-45315050D01*
X116340946Y-45319516D01*
X116391742Y-45367491D01*
X116408536Y-45435312D01*
X116385998Y-45501447D01*
X116340946Y-45540484D01*
X116332182Y-45544949D01*
X116160213Y-45669890D01*
X116009890Y-45820213D01*
X115884949Y-45992182D01*
X115880484Y-46000946D01*
X115832509Y-46051742D01*
X115764688Y-46068536D01*
X115698553Y-46045998D01*
X115659516Y-46000946D01*
X115655050Y-45992182D01*
X115530109Y-45820213D01*
X115379786Y-45669890D01*
X115207820Y-45544951D01*
X115018414Y-45448444D01*
X115018413Y-45448443D01*
X115018412Y-45448443D01*
X114816243Y-45382754D01*
X114816241Y-45382753D01*
X114816240Y-45382753D01*
X114654957Y-45357208D01*
X114606287Y-45349500D01*
X114393713Y-45349500D01*
X114345042Y-45357208D01*
X114183760Y-45382753D01*
X113981585Y-45448444D01*
X113792179Y-45544951D01*
X113620213Y-45669890D01*
X113469890Y-45820213D01*
X113344949Y-45992182D01*
X113340484Y-46000946D01*
X113292509Y-46051742D01*
X113224688Y-46068536D01*
X113158553Y-46045998D01*
X113119516Y-46000946D01*
X113115050Y-45992182D01*
X112990109Y-45820213D01*
X112839786Y-45669890D01*
X112667820Y-45544951D01*
X112667115Y-45544591D01*
X112659054Y-45540485D01*
X112608259Y-45492512D01*
X112591463Y-45424692D01*
X112613999Y-45358556D01*
X112659054Y-45319515D01*
X112667816Y-45315051D01*
X112788256Y-45227547D01*
X112839786Y-45190109D01*
X112839788Y-45190106D01*
X112839792Y-45190104D01*
X112990104Y-45039792D01*
X112990106Y-45039788D01*
X112990109Y-45039786D01*
X113115048Y-44867820D01*
X113115047Y-44867820D01*
X113115051Y-44867816D01*
X113211557Y-44678412D01*
X113277246Y-44476243D01*
X113310500Y-44266287D01*
X113310500Y-44053713D01*
X113277246Y-43843757D01*
X113211557Y-43641588D01*
X113115051Y-43452184D01*
X113115049Y-43452181D01*
X113115048Y-43452179D01*
X112990109Y-43280213D01*
X112839786Y-43129890D01*
X112667820Y-43004951D01*
X112478414Y-42908444D01*
X112478413Y-42908443D01*
X112478412Y-42908443D01*
X112276243Y-42842754D01*
X112276241Y-42842753D01*
X112276240Y-42842753D01*
X112114957Y-42817208D01*
X112066287Y-42809500D01*
X111853713Y-42809500D01*
X111805042Y-42817208D01*
X111643760Y-42842753D01*
X111441585Y-42908444D01*
X111252179Y-43004951D01*
X111080213Y-43129890D01*
X110929890Y-43280213D01*
X110804951Y-43452179D01*
X110708444Y-43641585D01*
X110642753Y-43843760D01*
X110616951Y-44006670D01*
X110609500Y-44053713D01*
X110609500Y-44266287D01*
X110642754Y-44476243D01*
X110669830Y-44559575D01*
X110708444Y-44678414D01*
X110804951Y-44867820D01*
X110929890Y-45039786D01*
X111080213Y-45190109D01*
X111252182Y-45315050D01*
X111260946Y-45319516D01*
X111311742Y-45367491D01*
X111328536Y-45435312D01*
X111305998Y-45501447D01*
X111260946Y-45540484D01*
X111252182Y-45544949D01*
X111080213Y-45669890D01*
X110929890Y-45820213D01*
X110804949Y-45992182D01*
X110800484Y-46000946D01*
X110752509Y-46051742D01*
X110684688Y-46068536D01*
X110618553Y-46045998D01*
X110579516Y-46000946D01*
X110575050Y-45992182D01*
X110450109Y-45820213D01*
X110299786Y-45669890D01*
X110127820Y-45544951D01*
X109938414Y-45448444D01*
X109938413Y-45448443D01*
X109938412Y-45448443D01*
X109736243Y-45382754D01*
X109736241Y-45382753D01*
X109736240Y-45382753D01*
X109574957Y-45357208D01*
X109526287Y-45349500D01*
X109313713Y-45349500D01*
X109265042Y-45357208D01*
X109103760Y-45382753D01*
X108901585Y-45448444D01*
X108712179Y-45544951D01*
X108540213Y-45669890D01*
X108389890Y-45820213D01*
X108264949Y-45992182D01*
X108260484Y-46000946D01*
X108212509Y-46051742D01*
X108144688Y-46068536D01*
X108078553Y-46045998D01*
X108039516Y-46000946D01*
X108035050Y-45992182D01*
X107910109Y-45820213D01*
X107759786Y-45669890D01*
X107587820Y-45544951D01*
X107587115Y-45544591D01*
X107579054Y-45540485D01*
X107528259Y-45492512D01*
X107511463Y-45424692D01*
X107533999Y-45358556D01*
X107579054Y-45319515D01*
X107587816Y-45315051D01*
X107708256Y-45227547D01*
X107759786Y-45190109D01*
X107759788Y-45190106D01*
X107759792Y-45190104D01*
X107910104Y-45039792D01*
X107910106Y-45039788D01*
X107910109Y-45039786D01*
X108035048Y-44867820D01*
X108035047Y-44867820D01*
X108035051Y-44867816D01*
X108131557Y-44678412D01*
X108197246Y-44476243D01*
X108230500Y-44266287D01*
X108230500Y-44053713D01*
X108197246Y-43843757D01*
X108131557Y-43641588D01*
X108035051Y-43452184D01*
X108035049Y-43452181D01*
X108035048Y-43452179D01*
X107910109Y-43280213D01*
X107759786Y-43129890D01*
X107587820Y-43004951D01*
X107398414Y-42908444D01*
X107398413Y-42908443D01*
X107398412Y-42908443D01*
X107196243Y-42842754D01*
X107196241Y-42842753D01*
X107196240Y-42842753D01*
X107034957Y-42817208D01*
X106986287Y-42809500D01*
X106773713Y-42809500D01*
X106725042Y-42817208D01*
X106563760Y-42842753D01*
X106361585Y-42908444D01*
X106172179Y-43004951D01*
X106000213Y-43129890D01*
X105849890Y-43280213D01*
X105724949Y-43452182D01*
X105720484Y-43460946D01*
X105672509Y-43511742D01*
X105604688Y-43528536D01*
X105538553Y-43505998D01*
X105499516Y-43460946D01*
X105495050Y-43452182D01*
X105370109Y-43280213D01*
X105219786Y-43129890D01*
X105047820Y-43004951D01*
X104858414Y-42908444D01*
X104858413Y-42908443D01*
X104858412Y-42908443D01*
X104656243Y-42842754D01*
X104656241Y-42842753D01*
X104656240Y-42842753D01*
X104494957Y-42817208D01*
X104446287Y-42809500D01*
X104233713Y-42809500D01*
X104185042Y-42817208D01*
X104023760Y-42842753D01*
X103821585Y-42908444D01*
X103632179Y-43004951D01*
X103460213Y-43129890D01*
X103309890Y-43280213D01*
X103184949Y-43452182D01*
X103180484Y-43460946D01*
X103132509Y-43511742D01*
X103064688Y-43528536D01*
X102998553Y-43505998D01*
X102959516Y-43460946D01*
X102955050Y-43452182D01*
X102830109Y-43280213D01*
X102679786Y-43129890D01*
X102507820Y-43004951D01*
X102318414Y-42908444D01*
X102318413Y-42908443D01*
X102318412Y-42908443D01*
X102116243Y-42842754D01*
X102116241Y-42842753D01*
X102116240Y-42842753D01*
X101954957Y-42817208D01*
X101906287Y-42809500D01*
X101693713Y-42809500D01*
X101645042Y-42817208D01*
X101483760Y-42842753D01*
X101281585Y-42908444D01*
X101092179Y-43004951D01*
X100920213Y-43129890D01*
X100769890Y-43280213D01*
X100644949Y-43452182D01*
X100640484Y-43460946D01*
X100592509Y-43511742D01*
X100524688Y-43528536D01*
X100458553Y-43505998D01*
X100419516Y-43460946D01*
X100415050Y-43452182D01*
X100290109Y-43280213D01*
X100139786Y-43129890D01*
X99967820Y-43004951D01*
X99778414Y-42908444D01*
X99778413Y-42908443D01*
X99778412Y-42908443D01*
X99576243Y-42842754D01*
X99576241Y-42842753D01*
X99576240Y-42842753D01*
X99414957Y-42817208D01*
X99366287Y-42809500D01*
X99153713Y-42809500D01*
X99105042Y-42817208D01*
X98943760Y-42842753D01*
X98741585Y-42908444D01*
X98552179Y-43004951D01*
X98380213Y-43129890D01*
X98229890Y-43280213D01*
X98104951Y-43452179D01*
X98008444Y-43641585D01*
X97942753Y-43843760D01*
X97916951Y-44006670D01*
X97909500Y-44053713D01*
X97909500Y-44266287D01*
X97942754Y-44476243D01*
X97969830Y-44559575D01*
X98008444Y-44678414D01*
X98104951Y-44867820D01*
X98229890Y-45039786D01*
X98380213Y-45190109D01*
X98552182Y-45315050D01*
X98560946Y-45319516D01*
X98611742Y-45367491D01*
X98628536Y-45435312D01*
X98605998Y-45501447D01*
X98560946Y-45540484D01*
X98552182Y-45544949D01*
X98380213Y-45669890D01*
X98229890Y-45820213D01*
X98104949Y-45992182D01*
X98100484Y-46000946D01*
X98052509Y-46051742D01*
X97984688Y-46068536D01*
X97918553Y-46045998D01*
X97879516Y-46000946D01*
X97875050Y-45992182D01*
X97750109Y-45820213D01*
X97599786Y-45669890D01*
X97427820Y-45544951D01*
X97238414Y-45448444D01*
X97238413Y-45448443D01*
X97238412Y-45448443D01*
X97036243Y-45382754D01*
X97036241Y-45382753D01*
X97036240Y-45382753D01*
X96874957Y-45357208D01*
X96826287Y-45349500D01*
X96613713Y-45349500D01*
X96565042Y-45357208D01*
X96403760Y-45382753D01*
X96201585Y-45448444D01*
X96012179Y-45544951D01*
X95840213Y-45669890D01*
X95689890Y-45820213D01*
X95564949Y-45992182D01*
X95560484Y-46000946D01*
X95512509Y-46051742D01*
X95444688Y-46068536D01*
X95378553Y-46045998D01*
X95339516Y-46000946D01*
X95335050Y-45992182D01*
X95210109Y-45820213D01*
X95059786Y-45669890D01*
X94887820Y-45544951D01*
X94887115Y-45544591D01*
X94879054Y-45540485D01*
X94828259Y-45492512D01*
X94811463Y-45424692D01*
X94833999Y-45358556D01*
X94879054Y-45319515D01*
X94887816Y-45315051D01*
X95008256Y-45227547D01*
X95059786Y-45190109D01*
X95059788Y-45190106D01*
X95059792Y-45190104D01*
X95210104Y-45039792D01*
X95210106Y-45039788D01*
X95210109Y-45039786D01*
X95335048Y-44867820D01*
X95335047Y-44867820D01*
X95335051Y-44867816D01*
X95431557Y-44678412D01*
X95497246Y-44476243D01*
X95530500Y-44266287D01*
X95530500Y-44053713D01*
X95497246Y-43843757D01*
X95431557Y-43641588D01*
X95335051Y-43452184D01*
X95335049Y-43452181D01*
X95335048Y-43452179D01*
X95210109Y-43280213D01*
X95059786Y-43129890D01*
X94887820Y-43004951D01*
X94698414Y-42908444D01*
X94698413Y-42908443D01*
X94698412Y-42908443D01*
X94496243Y-42842754D01*
X94496241Y-42842753D01*
X94496240Y-42842753D01*
X94334957Y-42817208D01*
X94286287Y-42809500D01*
X94073713Y-42809500D01*
X94025042Y-42817208D01*
X93863760Y-42842753D01*
X93661585Y-42908444D01*
X93472179Y-43004951D01*
X93300213Y-43129890D01*
X93149890Y-43280213D01*
X93024949Y-43452182D01*
X93020484Y-43460946D01*
X92972509Y-43511742D01*
X92904688Y-43528536D01*
X92838553Y-43505998D01*
X92799516Y-43460946D01*
X92795050Y-43452182D01*
X92670109Y-43280213D01*
X92519786Y-43129890D01*
X92347820Y-43004951D01*
X92158414Y-42908444D01*
X92158413Y-42908443D01*
X92158412Y-42908443D01*
X91956243Y-42842754D01*
X91956241Y-42842753D01*
X91956240Y-42842753D01*
X91794957Y-42817208D01*
X91746287Y-42809500D01*
X91533713Y-42809500D01*
X91485042Y-42817208D01*
X91323760Y-42842753D01*
X91121585Y-42908444D01*
X90932179Y-43004951D01*
X90760213Y-43129890D01*
X90609890Y-43280213D01*
X90484951Y-43452179D01*
X90388444Y-43641585D01*
X90322753Y-43843760D01*
X90296951Y-44006670D01*
X90289500Y-44053713D01*
X90289500Y-44266287D01*
X90322754Y-44476243D01*
X90349830Y-44559575D01*
X90388444Y-44678414D01*
X90484951Y-44867820D01*
X90609890Y-45039786D01*
X90760213Y-45190109D01*
X90932182Y-45315050D01*
X90940946Y-45319516D01*
X90991742Y-45367491D01*
X91008536Y-45435312D01*
X90985998Y-45501447D01*
X90940946Y-45540484D01*
X90932182Y-45544949D01*
X90760213Y-45669890D01*
X90609890Y-45820213D01*
X90484949Y-45992182D01*
X90480484Y-46000946D01*
X90432509Y-46051742D01*
X90364688Y-46068536D01*
X90298553Y-46045998D01*
X90259516Y-46000946D01*
X90255050Y-45992182D01*
X90130109Y-45820213D01*
X89979786Y-45669890D01*
X89807820Y-45544951D01*
X89618414Y-45448444D01*
X89618413Y-45448443D01*
X89618412Y-45448443D01*
X89416243Y-45382754D01*
X89416241Y-45382753D01*
X89416240Y-45382753D01*
X89254957Y-45357208D01*
X89206287Y-45349500D01*
X88993713Y-45349500D01*
X88945042Y-45357208D01*
X88783760Y-45382753D01*
X88581585Y-45448444D01*
X88392179Y-45544951D01*
X88220213Y-45669890D01*
X88069890Y-45820213D01*
X87944949Y-45992182D01*
X87940484Y-46000946D01*
X87892509Y-46051742D01*
X87824688Y-46068536D01*
X87758553Y-46045998D01*
X87719516Y-46000946D01*
X87715050Y-45992182D01*
X87590109Y-45820213D01*
X87439786Y-45669890D01*
X87267820Y-45544951D01*
X87267115Y-45544591D01*
X87259054Y-45540485D01*
X87208259Y-45492512D01*
X87191463Y-45424692D01*
X87213999Y-45358556D01*
X87259054Y-45319515D01*
X87267816Y-45315051D01*
X87388256Y-45227547D01*
X87439786Y-45190109D01*
X87439788Y-45190106D01*
X87439792Y-45190104D01*
X87590104Y-45039792D01*
X87590106Y-45039788D01*
X87590109Y-45039786D01*
X87715048Y-44867820D01*
X87715047Y-44867820D01*
X87715051Y-44867816D01*
X87811557Y-44678412D01*
X87877246Y-44476243D01*
X87910500Y-44266287D01*
X87910500Y-44053713D01*
X87877246Y-43843757D01*
X87811557Y-43641588D01*
X87715051Y-43452184D01*
X87715049Y-43452181D01*
X87715048Y-43452179D01*
X87590109Y-43280213D01*
X87439786Y-43129890D01*
X87267820Y-43004951D01*
X87078414Y-42908444D01*
X87078413Y-42908443D01*
X87078412Y-42908443D01*
X86876243Y-42842754D01*
X86876241Y-42842753D01*
X86876240Y-42842753D01*
X86714957Y-42817208D01*
X86666287Y-42809500D01*
X86453713Y-42809500D01*
X86405042Y-42817208D01*
X86243760Y-42842753D01*
X86041585Y-42908444D01*
X85852179Y-43004951D01*
X85680213Y-43129890D01*
X85529890Y-43280213D01*
X85404949Y-43452182D01*
X85400484Y-43460946D01*
X85352509Y-43511742D01*
X85284688Y-43528536D01*
X85218553Y-43505998D01*
X85179516Y-43460946D01*
X85175050Y-43452182D01*
X85050109Y-43280213D01*
X84899786Y-43129890D01*
X84727820Y-43004951D01*
X84538414Y-42908444D01*
X84538413Y-42908443D01*
X84538412Y-42908443D01*
X84336243Y-42842754D01*
X84336241Y-42842753D01*
X84336240Y-42842753D01*
X84174957Y-42817208D01*
X84126287Y-42809500D01*
X83913713Y-42809500D01*
X83865042Y-42817208D01*
X83703760Y-42842753D01*
X83501585Y-42908444D01*
X83312179Y-43004951D01*
X83140213Y-43129890D01*
X82989890Y-43280213D01*
X82864949Y-43452182D01*
X82860484Y-43460946D01*
X82812509Y-43511742D01*
X82744688Y-43528536D01*
X82678553Y-43505998D01*
X82639516Y-43460946D01*
X82635050Y-43452182D01*
X82507241Y-43276266D01*
X82508108Y-43275635D01*
X82481641Y-43216581D01*
X82480500Y-43199800D01*
X82480500Y-40484946D01*
X82500185Y-40417907D01*
X82505234Y-40410635D01*
X82593793Y-40292335D01*
X82593792Y-40292335D01*
X82593796Y-40292331D01*
X82644091Y-40157483D01*
X82650500Y-40097873D01*
X82650499Y-38598713D01*
X137099500Y-38598713D01*
X137099500Y-38811286D01*
X137132753Y-39021239D01*
X137198444Y-39223414D01*
X137294951Y-39412820D01*
X137419890Y-39584786D01*
X137443181Y-39608077D01*
X137476666Y-39669400D01*
X137479500Y-39695758D01*
X137479500Y-48217870D01*
X137479501Y-48217876D01*
X137485908Y-48277483D01*
X137536202Y-48412328D01*
X137536206Y-48412335D01*
X137622452Y-48527544D01*
X137622455Y-48527547D01*
X137737664Y-48613793D01*
X137737671Y-48613797D01*
X137872517Y-48664091D01*
X137872516Y-48664091D01*
X137879444Y-48664835D01*
X137932127Y-48670500D01*
X139027872Y-48670499D01*
X139087483Y-48664091D01*
X139222331Y-48613796D01*
X139337546Y-48527546D01*
X139423796Y-48412331D01*
X139474091Y-48277483D01*
X139480500Y-48217873D01*
X139480500Y-47233914D01*
X139480500Y-39624535D01*
X139486236Y-39604997D01*
X139487089Y-39584653D01*
X139498916Y-39561815D01*
X139500185Y-39557496D01*
X139503081Y-39553190D01*
X139503615Y-39552430D01*
X139605051Y-39412816D01*
X139613513Y-39396208D01*
X139618581Y-39389004D01*
X139639302Y-39372514D01*
X139657488Y-39353259D01*
X139666216Y-39351097D01*
X139673253Y-39345498D01*
X139699602Y-39342829D01*
X139725308Y-39336463D01*
X139733819Y-39339363D01*
X139742767Y-39338457D01*
X139766375Y-39350456D01*
X139791444Y-39358999D01*
X139797947Y-39366504D01*
X139805053Y-39370116D01*
X139813317Y-39384242D01*
X139830486Y-39404056D01*
X139834951Y-39412820D01*
X139959890Y-39584786D01*
X139983181Y-39608077D01*
X140016666Y-39669400D01*
X140019500Y-39695758D01*
X140019500Y-44917870D01*
X140019501Y-44917876D01*
X140025908Y-44977483D01*
X140076202Y-45112328D01*
X140076206Y-45112335D01*
X140162452Y-45227544D01*
X140162455Y-45227547D01*
X140277664Y-45313793D01*
X140277671Y-45313797D01*
X140412517Y-45364091D01*
X140412516Y-45364091D01*
X140419444Y-45364835D01*
X140472127Y-45370500D01*
X141567872Y-45370499D01*
X141627483Y-45364091D01*
X141762331Y-45313796D01*
X141877546Y-45227546D01*
X141963796Y-45112331D01*
X142014091Y-44977483D01*
X142020500Y-44917873D01*
X142020500Y-43999500D01*
X142020500Y-39624535D01*
X142026236Y-39604997D01*
X142027089Y-39584653D01*
X142038916Y-39561815D01*
X142040185Y-39557496D01*
X142043081Y-39553190D01*
X142043615Y-39552430D01*
X142145051Y-39412816D01*
X142153513Y-39396208D01*
X142158581Y-39389004D01*
X142179302Y-39372514D01*
X142197488Y-39353259D01*
X142206216Y-39351097D01*
X142213253Y-39345498D01*
X142239602Y-39342829D01*
X142265308Y-39336463D01*
X142273819Y-39339363D01*
X142282767Y-39338457D01*
X142306375Y-39350456D01*
X142331444Y-39358999D01*
X142337947Y-39366504D01*
X142345053Y-39370116D01*
X142353317Y-39384242D01*
X142370486Y-39404056D01*
X142374951Y-39412820D01*
X142499890Y-39584786D01*
X142523181Y-39608077D01*
X142556666Y-39669400D01*
X142559500Y-39695758D01*
X142559500Y-48217870D01*
X142559501Y-48217876D01*
X142565908Y-48277483D01*
X142616202Y-48412328D01*
X142616206Y-48412335D01*
X142702452Y-48527544D01*
X142702455Y-48527547D01*
X142817664Y-48613793D01*
X142817671Y-48613797D01*
X142952517Y-48664091D01*
X142952516Y-48664091D01*
X142959444Y-48664835D01*
X143012127Y-48670500D01*
X144107872Y-48670499D01*
X144167483Y-48664091D01*
X144302331Y-48613796D01*
X144417546Y-48527546D01*
X144503796Y-48412331D01*
X144554091Y-48277483D01*
X144560500Y-48217873D01*
X144560500Y-47233914D01*
X144560500Y-39881744D01*
X144580185Y-39814705D01*
X144632989Y-39768950D01*
X144702147Y-39759006D01*
X144765703Y-39788031D01*
X144783763Y-39807429D01*
X144862454Y-39912546D01*
X144977666Y-39998794D01*
X144977664Y-39998794D01*
X144977668Y-39998795D01*
X144977669Y-39998796D01*
X145018833Y-40014149D01*
X145074765Y-40056017D01*
X145099184Y-40121481D01*
X145099500Y-40130330D01*
X145099500Y-44917870D01*
X145099501Y-44917876D01*
X145105908Y-44977483D01*
X145156202Y-45112328D01*
X145156206Y-45112335D01*
X145242452Y-45227544D01*
X145242455Y-45227547D01*
X145357664Y-45313793D01*
X145357671Y-45313797D01*
X145492517Y-45364091D01*
X145492516Y-45364091D01*
X145499444Y-45364835D01*
X145552127Y-45370500D01*
X146647872Y-45370499D01*
X146707483Y-45364091D01*
X146842331Y-45313796D01*
X146957546Y-45227546D01*
X147043796Y-45112331D01*
X147094091Y-44977483D01*
X147100500Y-44917873D01*
X147100500Y-43999500D01*
X147100500Y-40106131D01*
X147120185Y-40039092D01*
X147156268Y-40005497D01*
X147155231Y-40004112D01*
X147235136Y-39944293D01*
X147277546Y-39912546D01*
X147363796Y-39797331D01*
X147414091Y-39662483D01*
X147420500Y-39602873D01*
X147420499Y-37807128D01*
X147414091Y-37747517D01*
X147412810Y-37744083D01*
X147363797Y-37612671D01*
X147363793Y-37612664D01*
X147277547Y-37497455D01*
X147277544Y-37497452D01*
X147162335Y-37411206D01*
X147162328Y-37411202D01*
X147027482Y-37360908D01*
X147027483Y-37360908D01*
X146967883Y-37354501D01*
X146967881Y-37354500D01*
X146967873Y-37354500D01*
X146967864Y-37354500D01*
X145172129Y-37354500D01*
X145172123Y-37354501D01*
X145112516Y-37360908D01*
X144977671Y-37411202D01*
X144977664Y-37411206D01*
X144862455Y-37497452D01*
X144862452Y-37497455D01*
X144776206Y-37612664D01*
X144776203Y-37612669D01*
X144727189Y-37744083D01*
X144685317Y-37800016D01*
X144619853Y-37824433D01*
X144551580Y-37809581D01*
X144523326Y-37788430D01*
X144409786Y-37674890D01*
X144237820Y-37549951D01*
X144048414Y-37453444D01*
X144048413Y-37453443D01*
X144048412Y-37453443D01*
X143846243Y-37387754D01*
X143846241Y-37387753D01*
X143846240Y-37387753D01*
X143684957Y-37362208D01*
X143636287Y-37354500D01*
X143423713Y-37354500D01*
X143375042Y-37362208D01*
X143213760Y-37387753D01*
X143011585Y-37453444D01*
X142822179Y-37549951D01*
X142650213Y-37674890D01*
X142499890Y-37825213D01*
X142374949Y-37997182D01*
X142370484Y-38005946D01*
X142322509Y-38056742D01*
X142254688Y-38073536D01*
X142188553Y-38050998D01*
X142149516Y-38005946D01*
X142145050Y-37997182D01*
X142020109Y-37825213D01*
X141869786Y-37674890D01*
X141697820Y-37549951D01*
X141508414Y-37453444D01*
X141508413Y-37453443D01*
X141508412Y-37453443D01*
X141306243Y-37387754D01*
X141306241Y-37387753D01*
X141306240Y-37387753D01*
X141144957Y-37362208D01*
X141096287Y-37354500D01*
X140883713Y-37354500D01*
X140835042Y-37362208D01*
X140673760Y-37387753D01*
X140471585Y-37453444D01*
X140282179Y-37549951D01*
X140110213Y-37674890D01*
X139959890Y-37825213D01*
X139834949Y-37997182D01*
X139830484Y-38005946D01*
X139782509Y-38056742D01*
X139714688Y-38073536D01*
X139648553Y-38050998D01*
X139609516Y-38005946D01*
X139605050Y-37997182D01*
X139480109Y-37825213D01*
X139329786Y-37674890D01*
X139157820Y-37549951D01*
X138968414Y-37453444D01*
X138968413Y-37453443D01*
X138968412Y-37453443D01*
X138766243Y-37387754D01*
X138766241Y-37387753D01*
X138766240Y-37387753D01*
X138604957Y-37362208D01*
X138556287Y-37354500D01*
X138343713Y-37354500D01*
X138295042Y-37362208D01*
X138133760Y-37387753D01*
X137931585Y-37453444D01*
X137742179Y-37549951D01*
X137570213Y-37674890D01*
X137419890Y-37825213D01*
X137294951Y-37997179D01*
X137198444Y-38186585D01*
X137132753Y-38388760D01*
X137099500Y-38598713D01*
X82650499Y-38598713D01*
X82650499Y-38302128D01*
X82645299Y-38253757D01*
X82644091Y-38242516D01*
X82593797Y-38107671D01*
X82593793Y-38107664D01*
X82507547Y-37992455D01*
X82507544Y-37992452D01*
X82392335Y-37906206D01*
X82392328Y-37906202D01*
X82257482Y-37855908D01*
X82257483Y-37855908D01*
X82197883Y-37849501D01*
X82197881Y-37849500D01*
X82197873Y-37849500D01*
X82197864Y-37849500D01*
X80402129Y-37849500D01*
X80402123Y-37849501D01*
X80342516Y-37855908D01*
X80207671Y-37906202D01*
X80207664Y-37906206D01*
X80092455Y-37992452D01*
X80092452Y-37992455D01*
X80006206Y-38107664D01*
X80006202Y-38107671D01*
X79955908Y-38242517D01*
X79949501Y-38302116D01*
X79949501Y-38302123D01*
X79949500Y-38302135D01*
X79949500Y-40097870D01*
X79949501Y-40097876D01*
X79955908Y-40157483D01*
X80006202Y-40292328D01*
X80006206Y-40292335D01*
X80092452Y-40407544D01*
X80092455Y-40407547D01*
X80207664Y-40493793D01*
X80207671Y-40493797D01*
X80252618Y-40510561D01*
X80342517Y-40544091D01*
X80368758Y-40546912D01*
X80433306Y-40573649D01*
X80473154Y-40631041D01*
X80479500Y-40670201D01*
X80479500Y-43199800D01*
X80459815Y-43266839D01*
X80450506Y-43279365D01*
X80324951Y-43452179D01*
X80228444Y-43641585D01*
X80162753Y-43843760D01*
X80136951Y-44006670D01*
X80129500Y-44053713D01*
X80129500Y-44266287D01*
X80162754Y-44476243D01*
X80189830Y-44559575D01*
X80228444Y-44678414D01*
X80324951Y-44867820D01*
X80449890Y-45039786D01*
X80600213Y-45190109D01*
X80772182Y-45315050D01*
X80780946Y-45319516D01*
X80831742Y-45367491D01*
X80848536Y-45435312D01*
X80825998Y-45501447D01*
X80780946Y-45540484D01*
X80772182Y-45544949D01*
X80600213Y-45669890D01*
X80449890Y-45820213D01*
X80324949Y-45992182D01*
X80320484Y-46000946D01*
X80272509Y-46051742D01*
X80204688Y-46068536D01*
X80138553Y-46045998D01*
X80099516Y-46000946D01*
X80095050Y-45992182D01*
X79970109Y-45820213D01*
X79819786Y-45669890D01*
X79647820Y-45544951D01*
X79458414Y-45448444D01*
X79458413Y-45448443D01*
X79458412Y-45448443D01*
X79256243Y-45382754D01*
X79256241Y-45382753D01*
X79256240Y-45382753D01*
X79094957Y-45357208D01*
X79046287Y-45349500D01*
X78833713Y-45349500D01*
X78785042Y-45357208D01*
X78623760Y-45382753D01*
X78421585Y-45448444D01*
X78232179Y-45544951D01*
X78060213Y-45669890D01*
X77909890Y-45820213D01*
X77784949Y-45992182D01*
X77780484Y-46000946D01*
X77732509Y-46051742D01*
X77664688Y-46068536D01*
X77598553Y-46045998D01*
X77559516Y-46000946D01*
X77555050Y-45992182D01*
X77430109Y-45820213D01*
X77279786Y-45669890D01*
X77107820Y-45544951D01*
X77107115Y-45544591D01*
X77099054Y-45540485D01*
X77048259Y-45492512D01*
X77031463Y-45424692D01*
X77053999Y-45358556D01*
X77099054Y-45319515D01*
X77107816Y-45315051D01*
X77228256Y-45227547D01*
X77279786Y-45190109D01*
X77279788Y-45190106D01*
X77279792Y-45190104D01*
X77430104Y-45039792D01*
X77430106Y-45039788D01*
X77430109Y-45039786D01*
X77555048Y-44867820D01*
X77555047Y-44867820D01*
X77555051Y-44867816D01*
X77651557Y-44678412D01*
X77717246Y-44476243D01*
X77750500Y-44266287D01*
X77750500Y-44053713D01*
X77717246Y-43843757D01*
X77651557Y-43641588D01*
X77555051Y-43452184D01*
X77555049Y-43452181D01*
X77555048Y-43452179D01*
X77427241Y-43276266D01*
X77428108Y-43275635D01*
X77401641Y-43216581D01*
X77400500Y-43199800D01*
X77400500Y-39887639D01*
X77414015Y-39831344D01*
X77426198Y-39807433D01*
X77471557Y-39718412D01*
X77537246Y-39516243D01*
X77570500Y-39306287D01*
X77570500Y-39093713D01*
X77537246Y-38883757D01*
X77471557Y-38681588D01*
X77375051Y-38492184D01*
X77375049Y-38492181D01*
X77375048Y-38492179D01*
X77250109Y-38320213D01*
X77099786Y-38169890D01*
X76927820Y-38044951D01*
X76738414Y-37948444D01*
X76738413Y-37948443D01*
X76738412Y-37948443D01*
X76536243Y-37882754D01*
X76536241Y-37882753D01*
X76536240Y-37882753D01*
X76374957Y-37857208D01*
X76326287Y-37849500D01*
X76113713Y-37849500D01*
X76065042Y-37857208D01*
X75903760Y-37882753D01*
X75701585Y-37948444D01*
X75512179Y-38044951D01*
X75340213Y-38169890D01*
X75189890Y-38320213D01*
X75064951Y-38492179D01*
X74968444Y-38681585D01*
X74902753Y-38883760D01*
X74880979Y-39021239D01*
X74869500Y-39093713D01*
X74869500Y-39306287D01*
X74902754Y-39516243D01*
X74961082Y-39695758D01*
X74968444Y-39718414D01*
X75064951Y-39907820D01*
X75189889Y-40079784D01*
X75189893Y-40079788D01*
X75189896Y-40079792D01*
X75267586Y-40157482D01*
X75340207Y-40230103D01*
X75348384Y-40236044D01*
X75391051Y-40291373D01*
X75399500Y-40336363D01*
X75399500Y-43035500D01*
X75379815Y-43102539D01*
X75327011Y-43148294D01*
X75275500Y-43159500D01*
X74820200Y-43159500D01*
X74753161Y-43139815D01*
X74740634Y-43130506D01*
X74567820Y-43004951D01*
X74378414Y-42908444D01*
X74378413Y-42908443D01*
X74378412Y-42908443D01*
X74176243Y-42842754D01*
X74176241Y-42842753D01*
X74176240Y-42842753D01*
X74014957Y-42817208D01*
X73966287Y-42809500D01*
X73753713Y-42809500D01*
X73705042Y-42817208D01*
X73543760Y-42842753D01*
X73341585Y-42908444D01*
X73152179Y-43004951D01*
X72980213Y-43129890D01*
X72980209Y-43129894D01*
X72946923Y-43163181D01*
X72926306Y-43174438D01*
X72908212Y-43189421D01*
X72893215Y-43192507D01*
X72885600Y-43196666D01*
X72874133Y-43198603D01*
X72866718Y-43199500D01*
X72801459Y-43199500D01*
X72704812Y-43218724D01*
X72700184Y-43219644D01*
X72700180Y-43219645D01*
X72608167Y-43237947D01*
X72608161Y-43237949D01*
X72554834Y-43260037D01*
X72554834Y-43260038D01*
X72517180Y-43275635D01*
X72426089Y-43313366D01*
X72426079Y-43313371D01*
X72262219Y-43422859D01*
X72224133Y-43460946D01*
X72122861Y-43562218D01*
X72122858Y-43562221D01*
X71690646Y-43994432D01*
X71629323Y-44027917D01*
X71559631Y-44022933D01*
X71503698Y-43981061D01*
X71485924Y-43947706D01*
X71444128Y-43828261D01*
X71413801Y-43741592D01*
X71291945Y-43488555D01*
X71142523Y-43250752D01*
X70967416Y-43031175D01*
X70768825Y-42832584D01*
X70549248Y-42657477D01*
X70311445Y-42508055D01*
X70311442Y-42508053D01*
X70058411Y-42386200D01*
X69793329Y-42293443D01*
X69793317Y-42293439D01*
X69519512Y-42230945D01*
X69519494Y-42230942D01*
X69240431Y-42199500D01*
X69240425Y-42199500D01*
X68959575Y-42199500D01*
X68959568Y-42199500D01*
X68680505Y-42230942D01*
X68680487Y-42230945D01*
X68406682Y-42293439D01*
X68406670Y-42293443D01*
X68141588Y-42386200D01*
X67888557Y-42508053D01*
X67650753Y-42657476D01*
X67431175Y-42832583D01*
X67232583Y-43031175D01*
X67057476Y-43250753D01*
X66908053Y-43488557D01*
X66786200Y-43741588D01*
X66741541Y-43869216D01*
X66700819Y-43925992D01*
X66635867Y-43951739D01*
X66567305Y-43938283D01*
X66516902Y-43889895D01*
X66500500Y-43828261D01*
X66500500Y-35904875D01*
X66500882Y-35895146D01*
X66508255Y-35801459D01*
X66514502Y-35722078D01*
X66517544Y-35702873D01*
X66556932Y-35538812D01*
X66562938Y-35520327D01*
X66627505Y-35364449D01*
X66636338Y-35347115D01*
X66724484Y-35203274D01*
X66735920Y-35187533D01*
X66845492Y-35059239D01*
X66859239Y-35045492D01*
X66987535Y-34935917D01*
X67003274Y-34924484D01*
X67147118Y-34836336D01*
X67164449Y-34827505D01*
X67320327Y-34762938D01*
X67338812Y-34756932D01*
X67502873Y-34717544D01*
X67522078Y-34714502D01*
X67695146Y-34700881D01*
X67704875Y-34700500D01*
X67792710Y-34700500D01*
X152707290Y-34700500D01*
X152795125Y-34700500D01*
X152804853Y-34700881D01*
G37*
%TD.AperFunction*%
%TA.AperFunction,Conductor*%
G36*
X105681444Y-44813999D02*
G01*
X105720486Y-44859056D01*
X105724951Y-44867820D01*
X105849890Y-45039786D01*
X106000213Y-45190109D01*
X106172182Y-45315050D01*
X106180946Y-45319516D01*
X106231742Y-45367491D01*
X106248536Y-45435312D01*
X106225998Y-45501447D01*
X106180946Y-45540484D01*
X106172182Y-45544949D01*
X106000213Y-45669890D01*
X105849890Y-45820213D01*
X105724951Y-45992179D01*
X105628444Y-46181585D01*
X105562753Y-46383760D01*
X105533665Y-46567416D01*
X105529500Y-46593713D01*
X105529500Y-46806287D01*
X105562754Y-47016243D01*
X105596895Y-47121319D01*
X105628444Y-47218414D01*
X105724951Y-47407820D01*
X105849890Y-47579786D01*
X106000213Y-47730109D01*
X106172179Y-47855048D01*
X106172181Y-47855049D01*
X106172184Y-47855051D01*
X106361588Y-47951557D01*
X106563757Y-48017246D01*
X106773713Y-48050500D01*
X106773714Y-48050500D01*
X106986286Y-48050500D01*
X106986287Y-48050500D01*
X107196243Y-48017246D01*
X107398412Y-47951557D01*
X107587816Y-47855051D01*
X107674138Y-47792335D01*
X107759786Y-47730109D01*
X107759788Y-47730106D01*
X107759792Y-47730104D01*
X107910104Y-47579792D01*
X107910106Y-47579788D01*
X107910109Y-47579786D01*
X108035048Y-47407820D01*
X108035049Y-47407819D01*
X108035051Y-47407816D01*
X108039514Y-47399054D01*
X108087488Y-47348259D01*
X108155308Y-47331463D01*
X108221444Y-47353999D01*
X108260486Y-47399056D01*
X108264951Y-47407820D01*
X108392759Y-47583734D01*
X108391888Y-47584366D01*
X108418357Y-47643401D01*
X108419500Y-47660199D01*
X108419500Y-49018545D01*
X108423160Y-49036946D01*
X108423162Y-49036951D01*
X108448168Y-49162666D01*
X108457947Y-49211829D01*
X108457949Y-49211837D01*
X108533364Y-49393907D01*
X108533371Y-49393920D01*
X108642859Y-49557780D01*
X108642860Y-49557781D01*
X108642861Y-49557782D01*
X108782218Y-49697139D01*
X110591387Y-51506308D01*
X110624872Y-51567631D01*
X110619888Y-51637323D01*
X110578016Y-51693256D01*
X110512552Y-51717673D01*
X110479515Y-51715606D01*
X110398544Y-51699500D01*
X110398540Y-51699500D01*
X110201460Y-51699500D01*
X110201457Y-51699500D01*
X110008171Y-51737947D01*
X110008163Y-51737949D01*
X109826089Y-51813367D01*
X109826079Y-51813372D01*
X109657154Y-51926245D01*
X109656133Y-51924717D01*
X109599746Y-51948666D01*
X109585391Y-51949500D01*
X107699500Y-51949500D01*
X107632461Y-51929815D01*
X107586706Y-51877011D01*
X107575500Y-51825500D01*
X107575499Y-51074998D01*
X107575498Y-51074980D01*
X107564999Y-50972203D01*
X107564998Y-50972200D01*
X107553648Y-50937949D01*
X107509814Y-50805666D01*
X107417712Y-50656344D01*
X107293656Y-50532288D01*
X107144334Y-50440186D01*
X106977797Y-50385001D01*
X106977795Y-50385000D01*
X106875010Y-50374500D01*
X105524998Y-50374500D01*
X105524981Y-50374501D01*
X105422203Y-50385000D01*
X105422200Y-50385001D01*
X105255668Y-50440185D01*
X105255659Y-50440189D01*
X105189432Y-50481039D01*
X105124336Y-50499500D01*
X104765783Y-50499500D01*
X104698744Y-50479815D01*
X104678102Y-50463181D01*
X103037781Y-48822861D01*
X102836819Y-48621899D01*
X102803334Y-48560576D01*
X102800500Y-48534218D01*
X102800500Y-47660199D01*
X102820185Y-47593160D01*
X102829471Y-47580664D01*
X102955048Y-47407820D01*
X102955049Y-47407819D01*
X102955051Y-47407816D01*
X103051557Y-47218412D01*
X103117246Y-47016243D01*
X103150500Y-46806287D01*
X103150500Y-46593713D01*
X103117246Y-46383757D01*
X103051557Y-46181588D01*
X102955051Y-45992184D01*
X102955049Y-45992181D01*
X102955048Y-45992179D01*
X102830109Y-45820213D01*
X102679786Y-45669890D01*
X102507820Y-45544951D01*
X102507115Y-45544591D01*
X102499054Y-45540485D01*
X102448259Y-45492512D01*
X102431463Y-45424692D01*
X102453999Y-45358556D01*
X102499054Y-45319515D01*
X102507816Y-45315051D01*
X102628256Y-45227547D01*
X102679786Y-45190109D01*
X102679788Y-45190106D01*
X102679792Y-45190104D01*
X102830104Y-45039792D01*
X102830106Y-45039788D01*
X102830109Y-45039786D01*
X102955048Y-44867820D01*
X102955047Y-44867820D01*
X102955051Y-44867816D01*
X102959514Y-44859054D01*
X103007488Y-44808259D01*
X103075308Y-44791463D01*
X103141444Y-44813999D01*
X103180486Y-44859056D01*
X103184951Y-44867820D01*
X103309890Y-45039786D01*
X103460213Y-45190109D01*
X103632179Y-45315048D01*
X103632181Y-45315049D01*
X103632184Y-45315051D01*
X103821588Y-45411557D01*
X104023757Y-45477246D01*
X104233713Y-45510500D01*
X104233714Y-45510500D01*
X104446286Y-45510500D01*
X104446287Y-45510500D01*
X104656243Y-45477246D01*
X104858412Y-45411557D01*
X105047816Y-45315051D01*
X105168256Y-45227547D01*
X105219786Y-45190109D01*
X105219788Y-45190106D01*
X105219792Y-45190104D01*
X105370104Y-45039792D01*
X105370106Y-45039788D01*
X105370109Y-45039786D01*
X105495048Y-44867820D01*
X105495047Y-44867820D01*
X105495051Y-44867816D01*
X105499514Y-44859054D01*
X105547488Y-44808259D01*
X105615308Y-44791463D01*
X105681444Y-44813999D01*
G37*
%TD.AperFunction*%
%TD*%
M02*
