M48
; DRILL file {KiCad 9.0.6-9.0.6~ubuntu24.04.1} date 2025-11-29T05:12:31+0100
; FORMAT={-:-/ absolute / metric / decimal}
; #@! TF.CreationDate,2025-11-29T05:12:31+01:00
; #@! TF.GenerationSoftware,Kicad,Pcbnew,9.0.6-9.0.6~ubuntu24.04.1
; #@! TF.FileFunction,Plated,1,2,PTH
FMAT,2
METRIC
; #@! TA.AperFunction,Plated,PTH,ViaDrill
T1C0.700
; #@! TA.AperFunction,Plated,PTH,ComponentDrill
T2C0.800
; #@! TA.AperFunction,Plated,PTH,ComponentDrill
T3C1.000
; #@! TA.AperFunction,Plated,PTH,ViaDrill
T4C2.700
%
G90
G05
T1
X113.6Y-64.2
X126.5Y-48.9
T2
X108.65Y-60.05
X111.19Y-60.05
X113.73Y-60.05
T3
X73.86Y-44.16
X73.86Y-46.7
X76.22Y-39.2
X76.4Y-44.16
X76.4Y-46.7
X78.76Y-39.2
X78.94Y-44.16
X78.94Y-46.7
X81.3Y-39.2
X81.48Y-44.16
X81.48Y-46.7
X84.02Y-44.16
X84.02Y-46.7
X86.56Y-44.16
X86.56Y-46.7
X89.1Y-44.16
X89.1Y-46.7
X91.64Y-44.16
X91.64Y-46.7
X94.18Y-44.16
X94.18Y-46.7
X96.72Y-44.16
X96.72Y-46.7
X99.26Y-44.16
X99.26Y-46.7
X101.8Y-44.16
X101.8Y-46.7
X104.34Y-44.16
X104.34Y-46.7
X106.88Y-44.16
X106.88Y-46.7
X109.42Y-44.16
X109.42Y-46.7
X111.96Y-44.16
X111.96Y-46.7
X114.5Y-44.16
X114.5Y-46.7
X117.04Y-44.16
X117.04Y-46.7
X117.225Y-91.515
X119.58Y-44.16
X119.58Y-46.7
X119.765Y-91.515
X122.12Y-44.16
X122.12Y-46.7
X138.45Y-38.705
X138.74Y-91.32
X140.99Y-38.705
X141.28Y-91.32
X143.53Y-38.705
X143.82Y-91.32
X146.07Y-38.705
X146.36Y-91.32
T4
X69.1Y-44.7
X69.1Y-93.7
X127.1Y-44.7
X127.1Y-93.7
M30
