M48
; DRILL file {KiCad 9.0.5-9.0.5~ubuntu24.04.1} date 2025-11-04T17:13:03+0100
; FORMAT={-:-/ absolute / metric / decimal}
; #@! TF.CreationDate,2025-11-04T17:13:03+01:00
; #@! TF.GenerationSoftware,Kicad,Pcbnew,9.0.5-9.0.5~ubuntu24.04.1
; #@! TF.FileFunction,Plated,1,2,PTH
FMAT,2
METRIC
; #@! TA.AperFunction,Plated,PTH,ViaDrill
T1C0.700
; #@! TA.AperFunction,Plated,PTH,ComponentDrill
T2C0.800
; #@! TA.AperFunction,Plated,PTH,ComponentDrill
T3C1.000
; #@! TA.AperFunction,Plated,PTH,ViaDrill
T4C2.700
%
G90
G05
T1
X94.2Y-48.8
X114.5Y-51.1
X114.5Y-51.1
X114.5Y-66.3
X124.7Y-54.0
X124.7Y-70.8
X127.4Y-50.8
X127.4Y-72.6
X130.9Y-48.9
X131.3Y-37.8
X133.4Y-44.5
X135.7Y-44.2
X135.7Y-57.2
X135.7Y-77.6
X136.8Y-69.3
X138.2Y-67.8
X142.2Y-54.3
X142.2Y-67.4
X144.9Y-66.7
X146.2Y-69.3
X151.2Y-67.3
X153.0Y-45.9
X153.0Y-70.4
T2
X110.62Y-73.7
X113.16Y-73.7
X115.7Y-73.7
T3
X73.86Y-44.16
X73.86Y-46.7
X76.4Y-44.16
X76.4Y-46.7
X78.94Y-44.16
X78.94Y-46.7
X81.48Y-44.16
X81.48Y-46.7
X84.02Y-44.16
X84.02Y-46.7
X86.56Y-44.16
X86.56Y-46.7
X89.1Y-44.16
X89.1Y-46.7
X91.64Y-44.16
X91.64Y-46.7
X94.18Y-44.16
X94.18Y-46.7
X96.72Y-44.16
X96.72Y-46.7
X99.26Y-44.16
X99.26Y-46.7
X101.8Y-44.16
X101.8Y-46.7
X104.34Y-44.16
X104.34Y-46.7
X106.88Y-44.16
X106.88Y-46.7
X109.42Y-44.16
X109.42Y-46.7
X109.625Y-91.815
X111.96Y-44.16
X111.96Y-46.7
X112.165Y-91.815
X114.5Y-44.16
X114.5Y-46.7
X117.04Y-44.16
X117.04Y-46.7
X119.58Y-44.16
X119.58Y-46.7
X122.12Y-44.16
X122.12Y-46.7
X135.48Y-92.0
X138.02Y-92.0
X140.56Y-92.0
X143.1Y-92.0
X143.79Y-39.085
X146.33Y-39.085
X148.87Y-39.085
X151.41Y-39.085
T4
X69.1Y-44.7
X69.1Y-93.7
X127.1Y-44.7
X127.1Y-93.7
M30
